{"glyphs":{"0":{"ha":1078,"x_min":29,"x_max":1011,"o":"m 31 183 l 31 888 q 39 914 29 906 q 61 922 44 922 l 811 922 q 846 888 846 922 l 846 803 q 881 767 846 767 l 972 767 q 999 757 988 767 q 1011 732 1010 747 l 1011 28 q 1008 13 1011 19 q 1000 3 1006 6 q 979 -7 994 -7 l 229 -7 q 193 28 193 -7 l 193 115 q 158 150 193 150 l 67 150 q 42 159 54 150 q 31 183 31 168 m 471 767 q 438 738 438 767 l 438 183 q 468 153 438 153 l 601 153 l 601 732 q 567 767 601 767 l 471 767 z "},"1":{"ha":507,"x_min":35,"x_max":440,"o":"m 35 26 l 35 893 q 67 922 35 922 l 404 922 q 440 890 440 922 l 440 181 q 404 147 440 147 l 318 147 q 282 114 282 147 l 282 26 q 246 -8 282 -8 l 69 -8 q 35 26 35 -8 z "},"2":{"ha":1078,"x_min":26,"x_max":1011,"o":"m 1011 886 q 1010 903 1011 896 q 1003 914 1010 910 q 983 921 993 921 l 454 921 q 418 886 418 921 l 418 801 q 454 767 418 767 l 569 767 q 597 756 590 767 l 597 492 q 567 458 597 458 l 61 458 q 26 425 26 458 l 26 -10 l 972 -10 q 1007 25 1007 -10 l 1007 111 q 972 146 1007 146 l 468 146 q 432 179 432 146 l 432 267 q 468 300 432 300 l 971 300 q 1007 333 1007 300 l 1007 885 l 1011 886 z "},"3":{"ha":1081,"x_min":35,"x_max":1014,"o":"m 1014 179 l 1014 886 q 978 921 1014 921 l 69 921 q 35 886 35 921 l 35 801 q 69 767 35 767 l 572 767 q 608 731 608 767 l 608 565 q 572 532 608 532 l 236 532 q 199 496 199 532 l 199 408 q 236 376 199 376 l 572 376 q 608 342 608 376 l 608 181 q 572 147 608 147 l 72 147 q 36 114 36 147 l 36 26 q 72 -8 36 -8 l 815 -8 q 853 26 853 -8 l 853 114 q 885 146 853 146 l 979 146 q 1014 179 1014 146 z "},"4":{"ha":1078,"x_min":25,"x_max":1011,"o":"m 597 888 l 601 888 l 601 489 q 568 454 601 454 l 472 454 q 438 489 438 454 l 438 893 q 422 911 435 901 q 397 921 410 921 l 57 921 q 25 886 25 921 l 29 886 l 29 331 q 65 299 29 299 l 568 299 q 600 271 600 299 l 600 24 q 635 -11 600 -11 l 974 -11 q 1011 24 1011 -11 l 1011 731 q 972 764 1011 764 l 882 764 q 846 797 846 764 l 846 886 q 838 914 846 906 q 810 922 826 922 l 633 922 q 597 888 597 922 z "},"5":{"ha":1078,"x_min":31,"x_max":1011,"o":"m 31 333 l 31 921 l 568 921 q 601 886 601 921 l 601 797 q 571 767 601 767 l 568 767 l 468 767 q 440 756 447 767 l 440 492 q 471 458 440 458 l 976 458 q 1011 425 1011 458 l 1011 25 q 978 -10 1011 -10 l 67 -10 q 31 25 31 -10 l 31 114 q 67 146 31 146 l 569 146 q 604 179 604 146 l 604 267 q 569 300 604 300 l 67 300 q 31 333 31 300 z "},"6":{"ha":1081,"x_min":35,"x_max":1014,"o":"m 442 731 l 442 646 q 479 611 442 611 l 978 611 q 1014 576 1014 611 l 1014 25 q 979 -10 1014 -10 l 232 -10 q 196 25 196 -10 l 196 111 q 161 146 196 146 l 72 146 q 35 179 35 146 l 35 886 q 69 921 35 921 l 815 921 q 851 886 851 921 l 851 801 q 815 767 851 767 l 479 767 q 442 731 442 767 m 571 454 l 479 454 q 442 421 442 454 l 442 179 q 479 146 442 146 l 571 146 q 608 179 608 146 l 608 421 q 571 454 608 454 z "},"7":{"ha":1076,"x_min":29,"x_max":1010,"o":"m 1010 732 l 1010 26 q 972 -8 1010 -8 l 635 -8 q 601 24 601 -8 l 601 732 q 571 765 601 765 l 65 765 q 29 793 29 765 l 29 888 q 65 922 29 922 l 811 922 q 846 888 846 922 l 846 803 q 881 767 846 767 l 972 767 q 999 757 988 767 q 1010 732 1010 747 z "},"8":{"ha":1081,"x_min":35,"x_max":1014,"o":"m 231 921 l 979 921 q 1014 886 1014 921 l 1014 179 q 976 146 1014 146 l 886 146 q 853 111 853 146 l 853 25 q 817 -10 853 -10 l 69 -10 q 35 25 35 -10 l 35 576 q 71 611 35 611 l 196 611 l 196 885 q 231 921 196 921 m 476 454 q 440 421 440 454 l 440 179 q 476 146 440 146 l 569 146 q 607 179 607 146 l 607 421 q 569 454 607 454 l 476 454 m 607 731 q 569 767 607 767 l 351 767 l 351 611 l 569 611 q 607 646 607 611 l 607 731 z "},"9":{"ha":1081,"x_min":35,"x_max":1014,"o":"m 608 182 l 608 271 q 571 303 608 303 l 72 303 q 35 336 35 303 l 35 893 q 69 924 35 924 l 815 924 q 853 893 853 924 l 853 804 q 885 767 853 767 l 978 767 q 1014 733 1014 767 l 1014 26 q 979 -7 1014 -7 l 233 -7 q 197 26 197 -7 l 197 115 q 233 150 197 150 l 571 150 q 608 182 608 150 m 479 460 l 571 460 q 608 492 608 460 l 608 733 q 571 767 608 767 l 479 767 q 442 733 442 767 l 442 492 q 479 460 442 460 z "}," ":{"ha":589,"x_min":0,"x_max":0,"o":""},"!":{"ha":507,"x_min":33,"x_max":440,"o":"m 35 354 l 35 893 q 67 922 35 922 l 404 922 q 440 890 440 922 l 440 508 q 404 476 440 476 l 318 476 q 282 442 282 476 l 282 354 q 246 319 282 319 l 69 319 q 35 354 35 319 m 436 32 q 399 -3 436 -3 l 65 -3 q 33 32 33 -3 l 33 200 q 65 236 33 236 l 399 236 q 436 200 436 236 l 436 32 z "},"\"":{"ha":939,"x_min":25,"x_max":872,"o":"m 431 717 l 429 717 l 429 846 l 429 857 l 429 885 q 390 921 429 921 l 57 921 q 25 885 25 921 l 25 567 q 33 540 25 551 q 60 528 42 528 l 236 528 q 272 563 272 528 l 272 649 q 294 682 272 678 l 390 682 q 410 686 401 682 q 431 717 431 690 m 872 717 l 871 717 l 871 846 q 869 857 871 854 l 869 885 q 832 921 869 921 l 499 921 q 467 885 467 921 l 467 567 q 475 540 467 551 q 501 528 483 528 l 678 528 q 714 563 714 528 l 714 649 q 736 682 714 678 l 832 682 q 851 686 843 682 q 872 717 872 690 z "},"#":{"ha":1219,"x_min":26,"x_max":1153,"o":"m 1011 735 l 1011 886 q 978 922 1011 922 l 638 922 q 611 913 622 922 q 594 893 600 904 l 594 767 q 558 733 594 733 l 467 733 q 432 760 432 733 l 432 893 l 431 896 q 393 924 431 924 l 224 924 q 197 914 206 924 q 188 888 188 907 l 188 801 q 153 767 188 767 l 61 767 q 26 731 26 767 l 26 183 q 61 147 26 147 l 153 147 q 188 113 188 147 l 188 26 q 197 0 188 7 q 224 -10 206 -10 l 401 -10 q 435 19 435 -10 l 435 150 l 601 150 l 601 25 l 597 25 q 633 -10 597 -10 l 810 -10 q 838 -1 826 -10 q 846 26 846 7 l 846 114 q 871 149 846 144 l 1117 149 q 1153 183 1153 149 l 1153 278 q 1117 308 1153 308 l 1011 308 l 1011 575 l 1115 575 q 1153 610 1153 575 l 1153 704 q 1115 735 1153 735 l 1011 735 m 601 310 l 435 310 l 435 547 q 467 575 435 575 l 601 575 l 601 310 z "},"$":{"ha":1078,"x_min":26,"x_max":1011,"o":"m 644 -62 l 644 -10 l 978 -10 q 1011 25 1011 -10 l 1011 425 q 976 458 1011 458 l 644 458 l 644 767 l 807 767 q 842 801 842 767 l 842 886 q 807 921 842 921 l 644 921 l 644 974 q 611 1003 644 1003 l 482 1003 q 444 969 444 1003 l 444 921 l 76 921 q 74 922 75 921 q 69 922 74 922 q 49 919 61 922 q 35 914 38 917 q 26 886 26 907 l 26 329 q 39 308 28 315 q 67 300 50 300 l 444 300 l 444 146 l 231 146 q 196 114 196 146 l 196 25 q 231 -10 196 -10 l 539 -10 l 539 -62 q 575 -97 539 -97 l 610 -97 q 644 -62 644 -97 m 347 492 l 347 756 q 375 767 354 767 l 444 767 l 444 458 l 378 458 q 347 492 347 458 m 696 300 q 732 267 732 300 l 732 179 q 696 146 732 146 l 644 146 l 644 300 l 696 300 z "},"%":{"ha":1085,"x_min":38,"x_max":1018,"o":"m 192 114 l 192 26 q 199 -1 192 6 q 226 -10 211 -10 l 404 -10 q 439 25 439 -10 l 436 25 q 606 326 536 201 q 722 534 676 450 q 794 667 768 618 q 831 744 819 717 q 846 782 843 771 q 849 799 849 793 l 849 888 q 839 914 849 908 q 813 924 831 924 l 635 924 q 611 917 619 924 q 603 894 603 911 q 606 876 603 890 l 192 114 m 444 719 l 443 719 l 443 850 q 442 861 443 857 l 442 889 q 404 925 442 925 l 69 925 q 38 889 38 925 l 38 721 q 47 695 38 706 q 72 685 56 685 l 404 685 q 422 689 411 686 q 444 719 444 696 m 1018 28 l 1017 28 l 1017 157 q 1015 168 1017 164 l 1015 196 q 978 232 1015 232 l 643 232 q 611 196 611 232 l 611 28 q 620 2 611 13 q 646 -8 629 -8 l 978 -8 q 996 -4 985 -7 q 1018 28 1018 1 z "},"&":{"ha":1194,"x_min":35,"x_max":1128,"o":"m 1128 482 l 1128 575 q 1093 611 1128 611 l 853 611 l 853 885 q 818 921 853 921 l 69 921 q 35 886 35 921 l 35 179 q 72 146 35 146 l 161 146 q 196 111 196 146 l 196 25 q 232 -10 196 -10 l 689 -10 l 689 -162 l 822 -162 q 851 -132 851 -162 l 851 -10 l 979 -10 q 1014 25 1014 -10 l 1014 449 l 1099 449 q 1128 482 1128 449 m 479 454 l 571 454 q 608 421 608 454 l 608 179 q 571 146 608 146 l 479 146 q 442 179 442 146 l 442 421 q 479 454 442 454 m 442 646 l 442 731 q 479 767 442 767 l 696 767 l 696 611 l 479 611 q 442 646 442 611 z "},"'":{"ha":497,"x_min":25,"x_max":431,"o":"m 431 717 l 429 717 l 429 846 l 429 857 l 429 885 q 390 921 429 921 l 57 921 q 25 885 25 921 l 25 567 q 33 540 25 551 q 60 528 42 528 l 236 528 q 272 563 272 528 l 272 649 q 294 682 272 678 l 390 682 q 410 686 401 682 q 431 717 431 690 z "},"(":{"ha":786,"x_min":33,"x_max":719,"o":"m 161 -21 l 71 -21 q 33 11 33 -21 l 33 1056 q 74 1090 40 1090 l 688 1090 q 719 1057 719 1090 l 719 969 q 683 935 719 935 l 476 935 q 443 900 443 932 l 443 14 q 442 11 442 13 q 442 11 442 11 q 475 -19 442 -19 l 685 -19 q 717 -53 717 -19 l 717 -143 q 681 -176 717 -176 l 229 -176 q 196 -144 196 -176 l 196 -56 q 161 -21 196 -21 z "},")":{"ha":785,"x_min":32,"x_max":718,"o":"m 590 -21 l 681 -21 q 718 11 718 -21 l 718 1056 q 678 1090 710 1090 l 64 1090 q 32 1057 32 1090 l 32 969 q 67 935 32 935 l 274 935 q 308 900 308 932 l 308 14 q 310 11 310 13 q 310 11 310 11 q 276 -19 310 -19 l 67 -19 q 35 -53 35 -19 l 35 -143 q 69 -176 35 -176 l 522 -176 q 554 -144 554 -176 l 554 -56 q 590 -21 554 -21 z "},"*":{"ha":497,"x_min":25,"x_max":431,"o":"m 431 717 l 429 717 l 429 846 l 429 857 l 429 885 q 390 921 429 921 l 57 921 q 25 885 25 921 l 25 718 q 33 692 25 703 q 58 681 42 681 l 390 681 q 410 686 404 683 q 431 717 431 690 z "},"+":{"ha":650,"x_min":29,"x_max":583,"o":"m 185 254 q 224 217 185 217 l 394 217 q 417 224 408 217 q 426 250 426 231 l 426 374 l 546 374 q 583 411 583 374 l 583 582 q 549 614 583 614 l 426 614 l 426 736 q 417 762 426 754 q 393 769 408 769 l 222 769 q 185 736 185 769 l 185 614 l 64 614 q 37 605 44 614 q 29 581 29 596 l 29 410 q 64 374 29 374 l 185 374 l 185 254 z "},",":{"ha":510,"x_min":36,"x_max":443,"o":"m 443 22 l 442 22 l 442 153 q 440 163 442 160 l 440 192 q 403 226 440 226 l 68 226 q 36 192 36 226 l 36 -128 q 45 -155 36 -143 q 72 -167 54 -167 l 247 -167 q 285 -132 285 -167 l 285 -44 q 307 -12 285 -17 l 403 -12 q 421 -8 413 -12 q 443 22 443 -3 z "},"-":{"ha":650,"x_min":29,"x_max":583,"o":"m 546 374 q 583 411 583 374 l 583 582 q 549 614 583 614 l 64 614 q 37 605 44 614 q 29 581 29 596 l 29 410 q 64 374 29 374 l 546 374 z "},".":{"ha":507,"x_min":36,"x_max":440,"o":"m 440 26 q 403 -8 440 -8 l 68 -8 q 36 26 36 -8 l 36 194 q 68 231 36 231 l 403 231 q 440 194 440 231 l 440 26 z "},"/":{"ha":763,"x_min":38,"x_max":696,"o":"m 38 114 l 38 26 q 44 -1 38 8 q 74 -10 57 -10 l 250 -10 q 286 25 286 -10 l 282 25 q 453 326 383 201 q 569 534 522 450 q 641 667 615 618 q 678 744 667 717 q 693 782 690 771 q 696 799 696 793 l 696 888 q 686 914 696 907 q 658 924 678 924 l 482 924 q 458 917 467 924 q 450 894 450 911 q 453 876 450 890 l 38 114 z "},":":{"ha":510,"x_min":36,"x_max":443,"o":"m 440 26 q 403 -8 440 -8 l 68 -8 q 36 26 36 -8 l 36 194 q 68 231 36 231 l 403 231 q 440 194 440 231 l 440 26 m 443 599 q 406 564 443 564 l 71 564 q 39 599 39 564 l 39 767 q 71 803 39 803 l 406 803 q 443 767 443 803 l 443 599 z "},";":{"ha":510,"x_min":36,"x_max":443,"o":"m 443 767 q 406 803 443 803 l 71 803 q 39 767 39 803 l 39 599 q 71 564 39 564 l 406 564 q 443 599 443 564 l 443 767 m 443 22 l 442 22 l 442 153 q 440 163 442 160 l 440 192 q 403 226 440 226 l 68 226 q 36 192 36 226 l 36 -128 q 45 -155 36 -143 q 72 -167 54 -167 l 247 -167 q 285 -132 285 -167 l 285 -44 q 307 -12 285 -17 l 403 -12 q 421 -8 413 -12 q 443 22 443 -3 z "},"<":{"ha":547,"x_min":22,"x_max":481,"o":"m 479 836 l 479 765 q 451 736 479 736 l 378 736 q 350 714 350 736 l 350 515 q 378 489 350 489 l 450 489 q 481 463 481 489 l 481 143 q 451 117 481 117 l 201 117 q 174 143 174 117 l 174 339 q 150 374 174 344 q 98 437 126 403 q 46 500 69 471 q 22 536 22 529 l 22 592 l 156 736 q 174 749 164 747 q 183 765 183 750 l 183 836 q 211 863 183 863 l 451 863 q 479 836 479 863 z "},"=":{"ha":650,"x_min":29,"x_max":583,"o":"m 546 463 q 583 500 583 463 l 583 672 q 576 695 583 686 q 549 704 568 704 l 64 704 q 37 694 44 704 q 29 671 29 685 l 29 500 q 64 463 29 463 l 546 463 m 546 129 q 583 167 583 129 l 583 338 q 549 369 583 369 l 64 369 q 37 360 44 369 q 29 336 29 351 l 29 165 q 64 129 29 129 l 546 129 z "},">":{"ha":547,"x_min":22,"x_max":481,"o":"m 24 836 l 24 765 q 51 736 24 736 l 125 736 q 153 714 153 736 l 153 515 q 125 489 153 489 l 53 489 q 22 463 22 489 l 22 143 q 51 117 22 117 l 301 117 q 329 143 329 117 l 329 339 q 353 374 329 344 q 405 437 376 403 q 457 500 433 471 q 481 536 481 529 l 481 592 l 347 736 q 329 749 339 747 q 319 765 319 750 l 319 836 q 292 863 319 863 l 51 863 q 24 836 24 863 z "},"?":{"ha":1079,"x_min":35,"x_max":1013,"o":"m 1013 492 q 978 458 1013 458 l 763 458 q 728 425 728 458 l 728 338 q 689 303 728 303 l 356 303 q 324 338 324 303 l 324 578 q 356 611 324 611 l 571 611 q 608 647 608 611 l 608 733 q 571 767 608 767 l 67 767 q 35 803 35 767 l 35 893 q 69 924 35 924 l 815 924 q 851 893 851 924 l 851 804 q 885 767 851 767 l 978 767 q 1013 736 1013 767 l 1013 492 m 728 26 q 689 -8 728 -8 l 356 -8 q 324 26 324 -8 l 324 194 q 356 231 324 231 l 689 231 q 728 194 728 231 l 728 26 z "},"@":{"ha":1078,"x_min":33,"x_max":1011,"o":"m 929 367 l 929 454 l 976 454 q 1011 488 1011 454 l 1011 886 q 978 921 1011 921 l 231 921 q 196 886 196 921 l 196 799 q 161 764 196 764 l 69 764 q 44 755 54 764 q 33 731 33 746 l 33 24 q 67 -8 33 -8 l 976 -8 q 1011 24 1011 -8 l 1011 111 q 976 147 1011 147 l 476 147 q 440 181 440 147 l 440 731 q 476 763 440 763 l 571 763 q 607 731 607 763 l 607 571 l 578 571 q 547 536 547 571 l 547 367 q 578 333 547 333 l 892 333 q 929 367 929 333 z "},"A":{"ha":1075,"x_min":28,"x_max":1008,"o":"m 28 732 q 39 757 28 747 q 65 767 50 767 l 157 767 q 192 803 192 767 l 192 888 q 225 922 192 922 l 972 922 q 1008 888 1008 922 l 1008 26 q 972 -7 1008 -7 l 635 -7 q 600 26 600 -7 l 600 382 l 436 382 l 436 24 q 401 -8 436 -8 l 64 -8 q 28 26 28 -8 l 28 732 m 436 539 l 600 539 l 600 738 q 567 767 600 767 l 471 767 q 436 732 436 767 l 436 539 z "},"B":{"ha":1081,"x_min":35,"x_max":1014,"o":"m 442 731 l 442 646 q 479 611 442 611 l 978 611 q 1014 576 1014 611 l 1014 25 q 979 -10 1014 -10 l 232 -10 q 196 25 196 -10 l 196 111 q 161 146 196 146 l 72 146 q 35 179 35 146 l 35 886 q 69 921 35 921 l 815 921 q 851 886 851 921 l 851 801 q 815 767 851 767 l 479 767 q 442 731 442 767 m 571 454 l 479 454 q 442 421 442 454 l 442 179 q 479 146 442 146 l 571 146 q 608 179 608 146 l 608 421 q 571 454 608 454 z "},"C":{"ha":1081,"x_min":35,"x_max":1014,"o":"m 161 147 l 72 147 q 35 181 35 147 l 35 888 q 72 922 38 922 l 979 922 q 1014 888 1014 922 l 1014 800 q 979 767 1014 767 l 476 767 q 442 732 442 767 l 442 183 q 476 150 442 150 l 979 150 q 1014 114 1014 150 l 1014 25 q 979 -8 1014 -8 l 233 -8 q 197 25 197 -8 l 197 114 q 161 147 197 147 z "},"D":{"ha":1079,"x_min":35,"x_max":1013,"o":"m 1013 732 l 1013 26 q 978 -7 1013 -7 l 69 -7 q 35 26 35 -7 l 35 886 q 72 922 38 922 l 815 922 q 853 886 853 922 l 853 803 q 885 767 853 767 l 978 767 q 1013 732 1013 767 m 442 732 l 442 182 q 476 150 442 150 l 571 150 q 608 182 608 150 l 608 732 q 571 767 608 767 l 476 767 q 442 732 442 767 z "},"E":{"ha":1081,"x_min":35,"x_max":1014,"o":"m 35 733 l 35 26 q 72 -7 35 -7 l 979 -7 q 1014 26 1014 -7 l 1014 115 q 979 150 1014 150 l 476 150 q 442 182 442 150 l 442 350 q 476 382 442 382 l 814 382 q 849 419 849 382 l 849 506 q 841 528 849 519 q 814 538 833 538 l 476 538 q 442 572 442 538 l 442 732 q 476 767 442 767 l 978 767 q 1013 803 1013 767 l 1013 888 q 978 922 1013 922 l 232 922 q 196 888 196 922 l 196 803 q 161 767 196 767 l 69 767 q 35 733 35 767 z "},"F":{"ha":1079,"x_min":35,"x_max":1013,"o":"m 35 733 l 35 26 q 72 -7 35 -7 l 407 -7 q 442 26 442 -7 l 442 350 q 476 382 442 382 l 814 382 q 849 419 849 382 l 849 506 q 841 528 849 519 q 814 538 833 538 l 476 538 q 442 572 442 538 l 442 732 q 476 767 442 767 l 978 767 q 1013 803 1013 767 l 1013 888 q 978 922 1013 922 l 232 922 q 196 888 196 922 l 196 803 q 161 767 196 767 l 69 767 q 35 733 35 767 z "},"G":{"ha":1078,"x_min":33,"x_max":1011,"o":"m 33 183 l 33 890 q 67 922 33 922 l 976 922 q 1011 890 1011 922 l 1011 803 q 976 767 1011 767 l 476 767 q 440 733 440 767 l 440 183 q 476 151 440 151 l 571 151 q 607 183 607 151 l 607 426 q 640 460 607 460 l 976 460 q 1011 426 1011 460 l 1011 28 q 978 -7 1011 -7 l 231 -7 q 196 28 196 -7 l 196 115 q 161 150 196 150 l 69 150 q 44 159 54 150 q 33 183 33 168 z "},"H":{"ha":1082,"x_min":26,"x_max":1015,"o":"m 1011 886 l 1011 185 q 1015 176 1015 181 q 1002 158 1015 165 q 972 150 989 150 l 882 150 q 846 114 846 150 l 846 26 q 838 -1 846 7 q 810 -10 826 -10 l 633 -10 q 597 25 597 -10 l 601 25 l 601 300 l 468 300 q 436 272 436 300 l 436 25 q 401 -10 436 -10 l 60 -10 q 26 25 26 -10 l 26 731 q 61 767 26 767 l 153 767 q 188 801 188 767 l 188 888 q 197 914 188 907 q 224 924 206 924 l 393 924 q 431 896 431 924 l 432 893 l 432 492 q 468 458 432 458 l 561 458 q 597 492 597 458 l 597 893 q 611 913 600 904 q 638 922 622 922 l 978 922 q 1011 886 1011 922 z "},"I":{"ha":1078,"x_min":33,"x_max":1011,"o":"m 33 115 l 33 26 q 68 -7 33 -7 l 976 -7 q 1011 26 1011 -7 l 1011 115 q 976 150 1011 150 l 761 150 q 724 182 724 150 l 724 733 q 761 767 724 767 l 976 767 q 1011 803 1011 767 l 1011 890 q 976 922 1011 922 l 68 922 q 33 890 33 922 l 33 803 q 68 767 33 767 l 446 767 q 481 733 481 767 l 481 649 q 446 611 481 611 l 354 611 q 318 578 318 611 l 318 182 q 283 150 318 150 l 68 150 q 33 115 33 150 z "},"J":{"ha":1078,"x_min":31,"x_max":1011,"o":"m 1011 183 l 1011 890 q 976 924 1011 924 l 638 924 q 604 893 604 924 l 604 183 q 568 151 604 151 l 475 151 q 439 183 439 151 l 439 426 q 403 460 439 460 l 67 460 q 31 426 31 460 l 31 28 q 67 -7 31 -7 l 814 -7 q 846 28 846 -7 l 846 115 q 883 150 846 150 l 974 150 q 1001 159 990 150 q 1011 183 1011 168 z "},"K":{"ha":1082,"x_min":35,"x_max":1015,"o":"m 1014 893 l 1014 804 q 979 767 1014 767 l 885 767 q 853 739 853 767 l 853 492 q 885 458 853 458 l 978 458 q 1015 425 1015 458 l 1015 26 q 979 -7 1015 -7 l 667 -7 q 632 26 632 -7 l 632 271 q 601 303 632 303 l 442 303 l 442 26 q 406 -7 442 -7 l 69 -7 q 35 26 35 -7 l 35 736 q 69 767 35 767 l 157 767 q 193 804 193 767 l 193 893 q 228 924 193 924 l 404 924 q 440 893 440 924 l 440 767 l 608 767 q 642 804 642 767 l 642 893 q 679 925 642 925 l 979 925 q 1014 893 1014 925 z "},"L":{"ha":1078,"x_min":31,"x_max":1011,"o":"m 31 183 l 31 890 q 65 924 31 924 l 403 924 q 438 893 438 924 l 438 183 q 468 153 438 153 l 974 153 q 1011 122 1011 153 l 1011 28 q 974 -7 1011 -7 l 229 -7 q 193 28 193 -7 l 193 115 q 158 150 193 150 l 67 150 q 42 159 54 150 q 31 183 31 168 z "},"M":{"ha":1649,"x_min":29,"x_max":1582,"o":"m 1582 732 l 1582 26 q 1547 -8 1582 -8 l 1208 -8 q 1176 24 1176 -8 l 1176 732 q 1139 767 1176 767 l 1046 767 q 1011 738 1011 767 l 1011 26 q 990 -4 1011 0 q 972 -8 983 -8 l 635 -8 q 601 24 601 -8 l 601 732 q 567 767 601 767 l 471 767 q 438 738 438 767 l 438 26 q 401 -7 438 -7 l 67 -7 q 29 26 29 -7 l 29 888 q 65 922 29 922 l 1385 922 q 1419 888 1419 922 l 1419 803 q 1454 767 1419 767 l 1546 767 q 1571 757 1560 767 q 1582 732 1582 747 z "},"N":{"ha":1076,"x_min":29,"x_max":1010,"o":"m 1010 732 l 1010 26 q 972 -8 1010 -8 l 635 -8 q 601 24 601 -8 l 601 732 q 567 767 601 767 l 471 767 q 438 738 438 767 l 438 26 q 401 -7 438 -7 l 67 -7 q 29 26 29 -7 l 29 888 q 65 922 29 922 l 811 922 q 846 888 846 922 l 846 803 q 881 767 846 767 l 972 767 q 999 757 988 767 q 1010 732 1010 747 z "},"O":{"ha":1078,"x_min":29,"x_max":1011,"o":"m 1011 176 l 1011 888 q 1000 914 1011 907 q 978 922 996 922 l 229 922 q 193 888 193 922 l 193 803 q 158 767 193 767 l 67 767 q 42 757 54 767 q 29 732 31 747 l 29 28 q 32 13 29 19 q 39 3 35 6 q 60 -7 44 -7 l 811 -7 q 846 28 846 -7 l 846 115 q 881 150 846 150 l 972 150 q 999 157 988 150 q 1011 176 1011 164 m 568 767 q 601 738 601 767 l 601 183 q 571 153 601 153 l 438 153 l 438 732 q 475 767 438 767 l 568 767 z "},"P":{"ha":1081,"x_min":35,"x_max":1014,"o":"m 442 25 l 442 267 q 479 300 442 300 l 978 300 q 1014 333 1014 300 l 1014 888 q 979 922 1014 922 l 232 922 q 196 888 196 922 l 196 801 q 161 767 196 767 l 72 767 q 35 731 35 767 l 35 25 q 69 -10 35 -10 l 407 -10 q 442 25 442 -10 m 571 458 l 479 458 q 442 492 442 458 l 442 731 q 479 767 442 767 l 571 767 q 608 731 608 767 l 608 492 q 571 458 608 458 z "},"Q":{"ha":1076,"x_min":31,"x_max":1010,"o":"m 31 183 l 31 893 q 39 914 31 906 q 61 922 44 922 l 811 922 q 846 888 846 922 l 846 803 q 881 767 846 767 l 972 767 q 999 757 988 767 q 1010 732 1010 747 l 1010 -128 q 972 -162 1010 -162 l 881 -162 q 844 -128 844 -162 l 844 -39 q 821 -7 844 -11 l 229 -7 q 193 28 193 -7 l 193 115 q 158 150 193 150 l 67 150 q 42 159 54 150 q 31 183 31 168 m 471 767 q 438 738 438 767 l 438 183 q 468 153 438 153 l 601 153 l 601 732 q 567 767 601 767 l 471 767 z "},"R":{"ha":1081,"x_min":35,"x_max":1014,"o":"m 903 24 q 869 -11 903 -11 l 692 -11 q 664 -3 674 -11 q 654 25 654 7 l 654 114 q 618 147 654 147 l 528 147 q 493 181 493 147 l 493 267 l 442 267 l 442 25 q 407 -10 442 -10 l 69 -10 q 35 25 35 -10 l 35 731 q 72 767 35 767 l 161 767 q 196 801 196 767 l 196 888 q 232 922 196 922 l 979 922 q 1014 888 1014 922 l 1014 333 q 1011 313 1014 325 q 1004 290 1008 301 q 994 272 1000 279 q 979 264 988 264 l 903 264 l 903 24 m 571 458 q 608 492 608 458 l 608 731 q 571 767 608 767 l 479 767 q 442 731 442 767 l 442 492 q 479 458 442 458 l 571 458 z "},"S":{"ha":1081,"x_min":31,"x_max":1011,"o":"m 72 110 l 569 110 l 569 453 l 65 453 q 31 486 31 453 l 31 886 q 64 921 31 921 l 811 921 q 846 886 846 921 l 846 797 q 811 765 846 765 l 472 765 q 438 732 438 765 l 438 644 q 472 611 438 611 l 975 611 q 1001 605 990 611 q 1011 588 1011 599 l 1011 179 q 999 154 1011 164 q 975 144 988 144 l 883 144 q 849 108 849 144 l 849 24 q 813 -11 849 -11 l 71 -11 l 39 0 q 31 24 31 8 l 31 100 l 72 110 z "},"T":{"ha":1078,"x_min":36,"x_max":1011,"o":"m 851 890 l 849 829 q 885 792 849 792 l 976 792 q 1011 760 1011 792 l 1011 703 q 976 665 1011 665 l 760 665 q 728 636 728 665 l 728 26 q 689 -7 728 -7 l 356 -7 q 321 26 322 -7 l 321 633 q 282 665 321 665 l 68 665 q 36 693 36 665 l 38 703 l 38 890 q 74 922 38 922 l 814 922 q 851 890 851 922 z "},"U":{"ha":1075,"x_min":28,"x_max":1008,"o":"m 28 181 l 28 886 q 64 922 28 922 l 401 922 q 436 893 436 922 l 436 181 q 471 147 436 147 l 567 147 q 593 154 586 147 q 600 178 600 161 l 600 886 q 635 921 600 921 l 972 921 q 1008 886 1008 921 l 1008 26 q 972 -10 1008 -10 l 225 -10 q 192 26 192 -10 l 192 114 q 157 146 192 146 l 65 146 q 39 157 50 146 q 28 181 28 168 z "},"V":{"ha":1079,"x_min":31,"x_max":1013,"o":"m 160 460 l 604 151 l 604 26 q 642 -7 604 -7 l 978 -7 q 1013 26 1013 -7 l 1013 736 q 978 767 1013 767 l 889 767 q 854 801 854 767 l 854 894 q 821 925 854 925 l 642 925 q 606 894 607 925 l 606 614 l 451 614 q 417 649 417 614 l 417 893 q 381 925 417 925 l 67 925 q 31 893 31 925 l 31 493 q 67 460 31 460 l 160 460 z "},"W":{"ha":1649,"x_min":29,"x_max":1582,"o":"m 29 181 l 29 886 q 65 922 29 922 l 401 922 q 436 893 436 922 l 436 181 q 472 147 436 147 l 568 147 q 601 178 601 147 l 601 886 q 622 921 601 910 q 629 922 625 921 q 638 922 633 922 l 976 922 q 1011 893 1011 922 l 1011 181 q 1046 147 1011 147 l 1140 147 q 1174 178 1174 147 l 1174 886 q 1208 921 1174 921 l 1544 921 q 1582 886 1582 921 l 1582 26 q 1547 -10 1582 -10 l 228 -10 q 193 26 193 -10 l 193 114 q 157 146 193 146 l 65 146 q 40 157 50 146 q 29 181 29 168 z "},"X":{"ha":1082,"x_min":33,"x_max":1015,"o":"m 1014 893 l 1014 804 q 979 767 1014 767 l 885 767 q 853 739 853 767 l 853 492 q 885 458 853 458 l 978 458 q 1015 425 1015 458 l 1015 26 q 979 -7 1015 -7 l 885 -7 q 851 26 851 -7 l 851 271 q 815 303 851 303 l 725 303 q 688 271 688 303 l 688 26 q 653 -7 688 -7 l 69 -7 q 33 26 33 -7 l 33 239 q 67 272 33 272 l 325 272 q 361 304 361 272 l 361 426 q 325 460 361 460 l 69 460 q 36 490 36 460 l 36 893 q 72 925 36 925 l 289 925 q 325 894 325 925 l 325 649 q 360 615 325 615 l 608 615 q 642 649 642 615 l 642 893 q 679 925 642 925 l 979 925 q 1014 893 1014 925 z "},"Y":{"ha":1078,"x_min":26,"x_max":1011,"o":"m 600 893 l 604 893 l 604 492 q 569 458 604 458 l 476 458 q 440 492 440 458 l 440 893 q 425 913 438 904 q 400 922 413 922 l 60 922 q 26 886 26 922 l 31 886 l 31 333 q 67 300 31 300 l 569 300 q 604 267 604 300 l 604 179 q 569 146 604 146 l 231 146 q 196 114 196 146 l 196 25 q 231 -10 196 -10 l 978 -10 q 1011 25 1011 -10 l 1011 731 q 976 767 1011 767 l 885 767 q 849 801 849 767 l 849 888 q 840 914 849 907 q 814 924 831 924 l 635 924 q 600 893 600 924 z "},"Z":{"ha":1078,"x_min":26,"x_max":1011,"o":"m 1011 604 l 1011 886 q 1010 903 1011 896 q 1003 914 1010 910 q 983 921 993 921 l 231 921 q 196 886 196 921 l 196 801 q 231 767 196 767 l 569 767 q 597 756 590 767 l 63 369 q 26 338 26 369 l 26 25 q 60 -10 26 -10 l 807 -10 q 842 25 842 -10 l 842 114 q 807 146 842 146 l 468 146 q 441 154 454 146 q 428 169 428 163 q 431 179 428 174 l 432 179 l 1011 604 z "},"[":{"ha":786,"x_min":32,"x_max":719,"o":"m 69 -175 q 32 -142 32 -175 l 32 1056 q 74 1090 40 1090 l 688 1090 q 719 1057 719 1090 l 719 969 q 683 935 719 935 l 476 935 q 443 900 443 932 l 443 14 q 442 11 442 13 q 442 11 442 11 q 475 -19 442 -19 l 685 -19 q 717 -53 717 -19 l 717 -143 q 681 -176 717 -176 l 69 -175 z "},"\\":{"ha":761,"x_min":36,"x_max":694,"o":"m 694 114 l 694 26 q 688 -1 694 8 q 658 -10 675 -10 l 482 -10 q 446 25 446 -10 l 450 25 q 279 326 349 201 q 163 534 210 450 q 91 667 117 618 q 53 744 65 717 q 39 782 42 771 q 36 799 36 793 l 36 888 q 46 914 36 907 q 74 924 54 924 l 250 924 q 274 917 265 924 q 282 894 282 911 q 279 876 282 890 l 694 114 z "},"]":{"ha":786,"x_min":32,"x_max":719,"o":"m 681 -175 q 719 -142 719 -175 l 719 1056 q 705 1081 714 1072 q 678 1090 696 1090 l 64 1090 q 32 1057 32 1090 l 32 969 q 67 935 32 935 l 274 935 q 308 900 308 932 l 308 14 q 310 11 310 13 q 310 11 310 11 q 276 -19 310 -19 l 67 -19 q 35 -53 35 -19 l 35 -143 q 69 -176 35 -176 l 681 -175 z "},"^":{"ha":821,"x_min":36,"x_max":754,"o":"m 483 754 q 506 721 506 749 l 506 633 q 543 599 506 599 l 718 599 q 745 610 736 599 q 754 638 754 622 l 754 957 q 722 992 754 992 l 68 992 q 36 957 36 992 l 36 638 q 45 610 36 622 q 72 599 54 599 l 247 599 q 285 633 285 599 l 285 721 q 307 754 285 749 l 483 754 z "},"_":{"ha":779,"x_min":0,"x_max":713,"o":"m 675 -218 q 713 -181 713 -218 l 713 -67 q 681 -39 713 -39 l 35 -39 q 8 -48 15 -39 q 0 -72 0 -57 l 0 -185 q 33 -218 0 -218 l 675 -218 z "},"`":{"ha":503,"x_min":29,"x_max":436,"o":"m 29 1178 l 31 1178 l 31 1308 q 32 1319 31 1315 l 32 1347 q 69 1382 32 1382 l 404 1382 q 436 1347 436 1382 l 436 1028 q 427 1001 436 1013 q 400 989 418 989 l 225 989 q 188 1024 188 989 l 188 1111 q 165 1144 188 1139 l 69 1144 q 51 1147 63 1144 q 29 1178 29 1153 z "},"a":{"ha":1081,"x_min":35,"x_max":1014,"o":"m 608 733 l 608 647 q 571 614 608 614 l 72 614 q 35 581 35 614 l 35 26 q 69 -8 35 -8 l 815 -8 q 853 26 853 -8 l 853 114 q 885 150 853 150 l 978 150 q 1014 182 1014 150 l 1014 890 q 979 922 1014 922 l 233 922 q 197 890 197 922 l 197 803 q 233 767 197 767 l 571 767 q 608 733 608 767 m 479 458 l 571 458 q 608 425 608 458 l 608 182 q 571 150 608 150 l 479 150 q 442 182 442 150 l 442 425 q 479 458 442 458 z "},"b":{"ha":1081,"x_min":35,"x_max":1014,"o":"m 442 890 l 442 647 q 475 614 442 614 l 978 614 q 1014 581 1014 614 l 1014 26 q 979 -8 1014 -8 l 232 -8 q 196 26 196 -8 l 196 114 q 161 150 196 150 l 72 150 q 35 182 35 150 l 35 890 q 69 922 35 922 l 407 922 q 442 890 442 922 m 571 458 l 479 458 q 442 425 442 458 l 442 182 q 479 150 442 150 l 571 150 q 608 182 608 150 l 608 425 q 571 458 608 458 z "},"c":{"ha":1081,"x_min":35,"x_max":1014,"o":"m 161 767 l 72 767 q 35 733 35 767 l 35 26 q 72 -7 36 -7 l 979 -7 q 1014 26 1014 -7 l 1014 115 q 979 150 1014 150 l 476 150 q 442 182 442 150 l 442 731 q 476 767 442 767 l 979 767 q 1014 801 1014 767 l 1014 890 q 979 922 1014 922 l 233 922 q 197 890 197 922 l 197 803 q 161 767 197 767 z "},"d":{"ha":1081,"x_min":35,"x_max":1014,"o":"m 608 890 l 608 647 q 574 614 608 614 l 72 614 q 35 581 35 614 l 35 26 q 69 -8 35 -8 l 815 -8 q 853 26 853 -8 l 853 114 q 885 150 853 150 l 978 150 q 1014 182 1014 150 l 1014 890 q 979 922 1014 922 l 640 922 q 608 890 608 922 m 479 458 l 571 458 q 608 425 608 458 l 608 182 q 571 150 608 150 l 479 150 q 442 182 442 150 l 442 425 q 479 458 442 458 z "},"e":{"ha":1081,"x_min":35,"x_max":1014,"o":"m 442 179 l 442 267 q 479 300 442 300 l 978 300 q 1014 333 1014 300 l 1014 888 q 979 922 1014 922 l 232 922 q 196 888 196 922 l 196 801 q 161 767 196 767 l 72 767 q 35 731 35 767 l 35 25 q 69 -10 35 -10 l 815 -10 q 851 25 851 -10 l 851 114 q 815 146 851 146 l 479 146 q 442 179 442 146 m 571 458 l 479 458 q 442 492 442 458 l 442 731 q 479 767 442 767 l 571 767 q 608 731 608 767 l 608 492 q 571 458 608 458 z "},"f":{"ha":1079,"x_min":35,"x_max":1013,"o":"m 35 733 l 35 26 q 72 -7 35 -7 l 407 -7 q 442 26 442 -7 l 442 350 q 476 382 442 382 l 814 382 q 849 419 849 382 l 849 506 q 841 528 849 519 q 814 538 833 538 l 476 538 q 442 572 442 538 l 442 732 q 476 767 442 767 l 978 767 q 1013 803 1013 767 l 1013 888 q 978 922 1013 922 l 232 922 q 196 888 196 922 l 196 803 q 161 767 196 767 l 69 767 q 35 733 35 767 z "},"g":{"ha":1081,"x_min":35,"x_max":1014,"o":"m 608 179 l 608 267 q 571 300 608 300 l 72 300 q 35 333 35 300 l 35 888 q 69 922 35 922 l 815 922 q 853 888 853 922 l 853 801 q 885 767 853 767 l 978 767 q 1014 731 1014 767 l 1014 25 q 979 -10 1014 -10 l 233 -10 q 197 25 197 -10 l 197 114 q 233 146 197 146 l 571 146 q 608 179 608 146 m 479 458 l 571 458 q 608 492 608 458 l 608 731 q 571 767 608 767 l 479 767 q 442 731 442 767 l 442 492 q 479 458 442 458 z "},"h":{"ha":1078,"x_min":26,"x_max":1011,"o":"m 438 25 l 432 25 l 432 425 q 468 458 432 458 l 561 458 q 597 425 597 458 l 597 21 q 611 0 600 8 q 638 -8 622 -8 l 978 -8 q 1011 26 1011 -8 l 1007 26 l 1007 581 q 971 614 1007 614 l 468 614 q 436 640 436 614 l 436 890 q 401 922 436 922 l 60 922 q 26 890 26 922 l 26 182 q 61 150 26 150 l 153 150 q 188 114 188 150 l 188 26 q 197 -1 188 6 q 224 -10 206 -10 l 401 -10 q 438 25 438 -10 z "},"i":{"ha":507,"x_min":35,"x_max":440,"o":"m 440 893 l 440 22 q 406 -7 440 -7 l 69 -7 q 35 26 35 -7 l 35 736 q 69 767 35 767 l 157 767 q 193 804 193 767 l 193 893 q 228 924 193 924 l 404 924 q 440 893 440 924 z "},"j":{"ha":1078,"x_min":31,"x_max":1011,"o":"m 1011 183 l 1011 890 q 976 924 1011 924 l 638 924 q 604 893 604 924 l 604 183 q 568 151 604 151 l 475 151 q 439 183 439 151 l 439 426 q 403 460 439 460 l 67 460 q 31 426 31 460 l 31 28 q 67 -7 31 -7 l 814 -7 q 846 28 846 -7 l 846 115 q 883 150 846 150 l 974 150 q 1001 159 990 150 q 1011 183 1011 168 z "},"k":{"ha":1082,"x_min":35,"x_max":1015,"o":"m 1014 26 q 979 -7 1014 -7 l 679 -7 q 642 26 642 -7 l 642 117 q 608 151 642 151 l 442 151 l 442 26 q 406 -7 442 -7 l 69 -7 q 35 26 35 -7 l 35 736 q 69 767 35 767 l 157 767 q 193 804 193 767 l 193 893 q 228 924 193 924 l 404 924 q 440 893 440 924 l 440 614 l 594 614 q 629 649 629 614 l 629 893 q 665 925 629 925 l 979 925 q 1015 893 1015 925 l 1015 493 q 978 460 1015 460 l 885 460 q 853 426 853 460 l 853 179 q 885 151 853 151 l 979 151 q 1014 117 1014 151 l 1014 26 z "},"l":{"ha":1078,"x_min":31,"x_max":1011,"o":"m 31 183 l 31 890 q 65 924 31 924 l 403 924 q 438 893 438 924 l 438 183 q 468 153 438 153 l 974 153 q 1011 122 1011 153 l 1011 28 q 974 -7 1011 -7 l 229 -7 q 193 28 193 -7 l 193 115 q 158 150 193 150 l 67 150 q 42 159 54 150 q 31 183 31 168 z "},"m":{"ha":1649,"x_min":29,"x_max":1582,"o":"m 1582 732 l 1582 26 q 1547 -8 1582 -8 l 1208 -8 q 1176 24 1176 -8 l 1176 732 q 1139 767 1176 767 l 1046 767 q 1011 738 1011 767 l 1011 26 q 990 -4 1011 0 q 972 -8 983 -8 l 635 -8 q 601 24 601 -8 l 601 732 q 567 767 601 767 l 471 767 q 438 738 438 767 l 438 26 q 401 -7 438 -7 l 67 -7 q 29 26 29 -7 l 29 888 q 65 922 29 922 l 1385 922 q 1419 888 1419 922 l 1419 803 q 1454 767 1419 767 l 1546 767 q 1571 757 1560 767 q 1582 732 1582 747 z "},"n":{"ha":1076,"x_min":29,"x_max":1010,"o":"m 1010 732 l 1010 26 q 972 -8 1010 -8 l 635 -8 q 601 24 601 -8 l 601 732 q 567 767 601 767 l 471 767 q 438 738 438 767 l 438 26 q 401 -7 438 -7 l 67 -7 q 29 26 29 -7 l 29 888 q 65 922 29 922 l 811 922 q 846 888 846 922 l 846 803 q 881 767 846 767 l 972 767 q 999 757 988 767 q 1010 732 1010 747 z "},"o":{"ha":1076,"x_min":29,"x_max":1010,"o":"m 1010 183 l 1010 893 q 1000 914 1010 907 q 978 922 996 922 l 229 922 q 193 888 193 922 l 193 803 q 158 767 193 767 l 67 767 q 42 757 54 767 q 29 732 31 747 l 29 28 q 32 13 29 19 q 39 3 35 6 q 60 -7 44 -7 l 811 -7 q 846 28 846 -7 l 846 115 q 881 150 846 150 l 972 150 q 999 159 988 150 q 1010 183 1010 168 m 568 767 q 601 738 601 767 l 601 183 q 571 153 601 153 l 438 153 l 438 732 q 475 767 438 767 l 568 767 z "},"p":{"ha":1081,"x_min":35,"x_max":1014,"o":"m 442 25 l 442 267 q 479 300 442 300 l 978 300 q 1014 333 1014 300 l 1014 888 q 979 922 1014 922 l 232 922 q 196 888 196 922 l 196 801 q 161 767 196 767 l 72 767 q 35 731 35 767 l 35 25 q 69 -10 35 -10 l 407 -10 q 442 25 442 -10 m 571 458 l 479 458 q 442 492 442 458 l 442 731 q 479 767 442 767 l 571 767 q 608 731 608 767 l 608 492 q 571 458 608 458 z "},"q":{"ha":1081,"x_min":35,"x_max":1014,"o":"m 608 25 l 608 267 q 571 300 608 300 l 72 300 q 35 333 35 300 l 35 888 q 69 922 35 922 l 815 922 q 853 888 853 922 l 853 801 q 885 767 853 767 l 978 767 q 1014 731 1014 767 l 1014 25 q 979 -10 1014 -10 l 640 -10 q 608 25 608 -10 m 479 458 l 571 458 q 608 492 608 458 l 608 731 q 571 767 608 767 l 479 767 q 442 731 442 767 l 442 492 q 479 458 442 458 z "},"r":{"ha":1078,"x_min":31,"x_max":1011,"o":"m 31 732 l 31 26 q 65 -8 31 -8 l 403 -8 q 438 24 438 -8 l 438 732 q 475 767 438 767 l 568 767 q 601 732 601 767 l 601 492 q 638 458 601 458 l 972 458 q 1011 492 1011 458 l 1011 888 q 974 922 1011 922 l 229 922 q 193 888 193 922 l 193 803 q 158 767 193 767 l 67 767 q 42 757 54 767 q 31 732 31 747 z "},"s":{"ha":1081,"x_min":31,"x_max":1011,"o":"m 969 801 l 472 801 l 472 458 l 976 458 q 1011 425 1011 458 l 1011 25 q 978 -10 1011 -10 l 231 -10 q 196 25 196 -10 l 196 114 q 231 146 196 146 l 569 146 q 604 179 604 146 l 604 267 q 569 300 604 300 l 67 300 q 41 306 51 300 q 31 324 31 313 l 31 732 q 42 757 31 747 q 67 767 54 767 l 158 767 q 193 803 193 767 l 193 888 q 229 922 193 922 l 971 922 l 1003 911 q 1011 888 1011 903 l 1011 811 l 969 801 z "},"t":{"ha":1081,"x_min":33,"x_max":1014,"o":"m 407 767 l 72 767 q 33 731 38 767 l 33 492 q 67 458 33 458 l 247 458 q 282 425 282 458 l 282 26 q 318 -7 282 -7 l 979 -7 q 1014 26 1014 -7 l 1014 114 q 979 147 1014 147 l 725 147 q 688 181 688 147 l 688 425 q 725 458 688 458 l 976 458 q 1011 492 1011 458 l 1011 576 q 976 611 1011 611 l 725 611 q 688 647 688 611 l 688 888 q 653 922 688 922 l 479 922 q 442 888 442 922 l 442 801 q 407 767 442 767 z "},"u":{"ha":1075,"x_min":28,"x_max":1008,"o":"m 28 181 l 28 886 q 64 922 28 922 l 401 922 q 436 893 436 922 l 436 181 q 471 147 436 147 l 567 147 q 593 154 586 147 q 600 178 600 161 l 600 886 q 635 921 600 921 l 972 921 q 1008 886 1008 921 l 1008 26 q 972 -10 1008 -10 l 225 -10 q 192 26 192 -10 l 192 114 q 157 146 192 146 l 65 146 q 39 157 50 146 q 28 181 28 168 z "},"v":{"ha":1079,"x_min":31,"x_max":1013,"o":"m 885 460 l 439 151 l 439 26 q 403 -7 439 -7 l 67 -7 q 31 26 31 -7 l 31 736 q 67 767 31 767 l 154 767 q 190 801 190 767 l 190 894 q 224 925 190 925 l 401 925 q 438 894 436 925 l 438 614 l 593 614 q 626 649 626 614 l 626 893 q 664 925 626 925 l 978 925 q 1013 893 1013 925 l 1013 493 q 976 460 1013 460 l 885 460 z "},"w":{"ha":1649,"x_min":29,"x_max":1582,"o":"m 29 181 l 29 886 q 65 922 29 922 l 401 922 q 436 893 436 922 l 436 181 q 472 147 436 147 l 568 147 q 601 178 601 147 l 601 886 q 622 921 601 910 q 629 922 625 921 q 638 922 633 922 l 976 922 q 1011 893 1011 922 l 1011 181 q 1046 147 1011 147 l 1140 147 q 1174 178 1174 147 l 1174 886 q 1208 921 1174 921 l 1544 921 q 1582 886 1582 921 l 1582 26 q 1547 -10 1582 -10 l 228 -10 q 193 26 193 -10 l 193 114 q 157 146 193 146 l 65 146 q 40 157 50 146 q 29 181 29 168 z "},"x":{"ha":1081,"x_min":32,"x_max":1014,"o":"m 33 893 l 33 804 q 68 767 33 767 l 163 767 q 194 739 194 767 l 194 492 q 163 458 194 458 l 69 458 q 32 425 32 458 l 32 26 q 68 -7 32 -7 l 163 -7 q 196 26 196 -7 l 196 271 q 232 303 196 303 l 322 303 q 360 271 360 303 l 360 26 q 394 -7 360 -7 l 978 -7 q 1014 26 1014 -7 l 1014 239 q 981 272 1014 272 l 722 272 q 686 304 686 272 l 686 426 q 722 460 686 460 l 978 460 q 1011 490 1011 460 l 1011 893 q 975 925 1011 925 l 758 925 q 722 894 722 925 l 722 649 q 688 615 722 615 l 439 615 q 406 649 406 615 l 406 893 q 368 925 406 925 l 68 925 q 33 893 33 925 z "},"y":{"ha":1078,"x_min":26,"x_max":1011,"o":"m 600 893 l 604 893 l 604 492 q 569 458 604 458 l 476 458 q 440 492 440 458 l 440 893 q 425 913 438 904 q 400 922 413 922 l 60 922 q 26 886 26 922 l 31 886 l 31 333 q 67 300 31 300 l 569 300 q 604 267 604 300 l 604 179 q 569 146 604 146 l 231 146 q 196 114 196 146 l 196 25 q 231 -10 196 -10 l 978 -10 q 1011 25 1011 -10 l 1011 731 q 976 767 1011 767 l 885 767 q 849 801 849 767 l 849 888 q 840 914 849 907 q 814 924 831 924 l 635 924 q 600 893 600 924 z "},"z":{"ha":1074,"x_min":26,"x_max":1007,"o":"m 1007 888 l 1006 892 q 999 912 1003 903 q 983 921 994 921 l 231 921 q 196 886 196 921 l 196 801 q 231 767 196 767 l 569 767 q 597 756 590 767 l 597 492 q 567 458 597 458 l 61 458 q 26 425 26 458 l 26 25 q 60 -10 26 -10 l 807 -10 q 842 25 842 -10 l 842 114 q 807 146 842 146 l 468 146 q 432 179 432 146 l 432 267 q 468 300 432 300 l 971 300 q 1007 333 1007 300 l 1007 888 z "},"{":{"ha":786,"x_min":33,"x_max":719,"o":"m 161 935 l 71 935 q 33 901 33 935 l 33 -142 q 74 -176 40 -176 l 688 -176 q 719 -143 719 -176 l 719 -56 q 683 -21 719 -21 l 476 -21 q 443 14 443 -19 l 443 900 q 442 903 442 901 q 475 932 442 932 l 685 932 q 717 967 717 932 l 717 1057 q 681 1090 717 1090 l 229 1090 q 196 1058 196 1090 l 196 969 q 161 935 196 935 z "},"|":{"ha":507,"x_min":35,"x_max":440,"o":"m 440 -67 l 440 971 q 407 999 440 999 l 71 999 q 35 967 35 999 l 35 181 q 71 147 35 147 l 157 147 q 193 114 193 147 l 193 -67 q 229 -100 193 -100 l 406 -100 q 440 -67 440 -100 z "},"}":{"ha":785,"x_min":32,"x_max":718,"o":"m 590 935 l 681 935 q 718 901 718 935 l 718 -142 q 678 -176 710 -176 l 64 -176 q 32 -143 32 -176 l 32 -56 q 67 -21 32 -21 l 274 -21 q 308 14 308 -18 l 308 900 q 310 903 310 901 q 276 932 310 932 l 67 932 q 35 967 35 932 l 35 1057 q 69 1090 35 1090 l 522 1090 q 554 1058 554 1090 l 554 969 q 590 935 554 935 z "},"~":{"ha":651,"x_min":29,"x_max":585,"o":"m 547 386 q 560 383 556 383 q 577 390 569 383 q 585 407 585 396 l 585 411 l 585 583 q 550 626 582 617 q 460 643 504 643 q 382 634 421 643 q 305 615 343 625 q 227 595 267 604 q 149 586 188 586 q 103 590 125 586 q 57 603 81 593 l 44 606 q 31 594 33 599 q 29 582 29 589 l 29 410 q 36 380 31 394 q 57 361 42 365 q 103 347 81 350 q 149 343 125 343 l 458 403 q 502 399 481 403 q 547 386 524 396 z "},"":{"ha":594,"x_min":0,"x_max":0,"o":""},"€":{"ha":1151,"x_min":33,"x_max":1085,"o":"m 71 169 q 33 208 33 169 l 33 379 q 41 402 33 393 q 67 411 49 411 l 106 411 l 106 504 l 71 504 q 33 542 33 504 l 33 713 q 67 744 33 744 l 106 744 q 143 767 114 767 l 232 767 q 268 803 268 767 l 268 890 q 304 922 268 922 l 1050 922 q 1085 890 1085 922 l 1085 801 q 1050 767 1085 767 l 547 767 q 515 744 519 767 l 749 744 q 771 735 764 744 q 778 713 778 725 l 778 542 q 743 506 778 506 l 513 506 l 513 411 l 749 411 q 771 401 764 411 q 778 379 778 392 l 778 208 q 743 171 778 171 l 514 171 q 547 150 518 150 l 1050 150 q 1085 115 1085 150 l 1085 26 q 1050 -7 1085 -7 l 143 -7 q 106 26 107 -7 l 106 169 l 71 169 z "},"‚":{"ha":510,"x_min":36,"x_max":443,"o":"m 443 22 l 442 22 l 442 153 q 440 163 442 160 l 440 192 q 403 226 440 226 l 68 226 q 36 192 36 226 l 36 -128 q 45 -155 36 -143 q 72 -167 54 -167 l 247 -167 q 285 -132 285 -167 l 285 -44 q 307 -12 285 -17 l 403 -12 q 421 -8 413 -12 q 443 22 443 -3 z "},"ƒ":{"ha":1079,"x_min":-125,"x_max":1013,"o":"m -125 -175 l -124 -175 l -124 -304 q -122 -315 -124 -311 l -122 -343 q -85 -379 -122 -379 l 249 -379 q 281 -343 281 -379 l 281 -25 q 278 -7 281 -18 l 407 -7 q 442 26 442 -7 l 442 350 q 476 382 442 382 l 814 382 q 849 419 849 382 l 849 506 q 841 528 849 519 q 814 538 833 538 l 476 538 q 442 572 442 538 l 442 732 q 476 767 442 767 l 978 767 q 1013 803 1013 767 l 1013 888 q 978 922 1013 922 l 232 922 q 196 888 196 922 l 196 803 q 161 767 196 767 l 69 767 q 35 733 35 767 l 35 -107 q 11 -140 32 -136 l -85 -140 q -104 -144 -96 -140 q -125 -175 -125 -149 z "},"„":{"ha":960,"x_min":36,"x_max":893,"o":"m 443 22 l 442 22 l 442 153 q 440 163 442 160 l 440 192 q 403 226 440 226 l 68 226 q 36 192 36 226 l 36 -128 q 45 -155 36 -143 q 72 -167 54 -167 l 247 -167 q 285 -132 285 -167 l 285 -44 q 307 -12 285 -17 l 403 -12 q 421 -8 413 -12 q 443 22 443 -3 m 893 22 l 893 153 q 892 163 893 160 l 892 192 q 854 226 892 226 l 519 226 q 488 192 488 226 l 488 -128 q 497 -155 488 -143 q 524 -167 506 -167 l 699 -167 q 736 -132 736 -167 l 736 -44 q 758 -12 736 -17 l 854 -12 q 872 -8 864 -12 q 893 22 893 -3 z "},"…":{"ha":1425,"x_min":36,"x_max":1358,"o":"m 440 26 q 403 -8 440 -8 l 68 -8 q 36 26 36 -8 l 36 194 q 68 231 36 231 l 403 231 q 440 194 440 231 l 440 26 m 896 25 q 858 -10 896 -10 l 524 -10 q 492 25 492 -10 l 492 193 q 524 229 492 229 l 858 229 q 896 193 896 229 l 896 25 m 1358 26 q 1321 -8 1358 -8 l 986 -8 q 954 26 954 -8 l 954 194 q 986 231 954 231 l 1321 231 q 1358 194 1358 231 l 1358 26 z "},"†":{"ha":1078,"x_min":33,"x_max":1011,"o":"m 407 767 l 72 767 q 33 731 38 767 l 33 492 q 67 458 33 458 l 247 458 q 282 425 282 458 l 282 26 q 318 -7 282 -7 l 654 -7 q 689 28 689 -7 l 689 429 q 725 458 689 458 l 976 458 q 1011 492 1011 458 l 1011 576 q 976 611 1011 611 l 725 611 q 688 647 688 611 l 688 888 q 653 922 688 922 l 479 922 q 442 888 442 922 l 442 801 q 407 767 442 767 z "},"‡":{"ha":1078,"x_min":33,"x_max":1011,"o":"m 689 38 q 725 67 689 67 l 976 67 q 1011 100 1011 67 l 1011 185 q 976 219 1011 219 l 725 219 q 689 240 696 219 l 689 429 q 725 458 689 458 l 976 458 q 1011 492 1011 458 l 1011 576 q 976 611 1011 611 l 725 611 q 688 647 688 611 l 688 888 q 653 922 688 922 l 479 922 q 442 888 442 922 l 442 801 q 407 767 442 767 l 72 767 q 33 731 38 767 l 33 492 q 67 458 33 458 l 247 458 q 282 425 282 458 l 282 374 l 72 374 q 33 339 38 374 l 33 100 q 67 67 33 67 l 247 67 q 282 38 278 67 l 282 -87 q 318 -121 282 -121 l 654 -121 q 689 -86 689 -121 l 689 38 z "},"ˆ":{"ha":814,"x_min":29,"x_max":747,"o":"m 476 1147 q 499 1114 499 1142 l 499 1026 q 536 992 499 992 l 711 992 q 738 1003 729 992 q 747 1031 747 1015 l 747 1350 q 715 1385 747 1385 l 61 1385 q 29 1350 29 1385 l 29 1031 q 38 1003 29 1015 q 65 992 47 992 l 240 992 q 278 1026 278 992 l 278 1114 q 300 1147 278 1142 l 476 1147 z "},"‰":{"ha":1368,"x_min":38,"x_max":1301,"o":"m 192 114 l 192 26 q 199 -1 192 6 q 226 -10 211 -10 l 404 -10 q 439 25 439 -10 l 436 25 q 606 326 536 201 q 722 534 676 450 q 794 667 768 618 q 831 744 819 717 q 846 782 843 771 q 849 799 849 793 l 849 888 q 839 914 849 908 q 813 924 831 924 l 635 924 q 611 917 619 924 q 603 894 603 911 q 606 876 603 890 l 192 114 m 444 719 l 443 719 l 443 850 q 442 861 443 857 l 442 889 q 404 925 442 925 l 69 925 q 38 889 38 925 l 38 721 q 47 695 38 706 q 72 685 56 685 l 404 685 q 422 689 411 686 q 444 719 444 696 m 1018 28 l 1017 28 l 1017 157 q 1015 168 1017 164 l 1015 196 q 978 232 1015 232 l 643 232 q 611 196 611 232 l 611 28 q 620 2 611 13 q 646 -8 629 -8 l 978 -8 q 996 -4 985 -7 q 1018 28 1018 1 m 1301 332 l 1300 332 l 1300 461 q 1299 472 1300 468 l 1299 500 q 1261 536 1299 536 l 926 536 q 894 500 894 536 l 894 332 q 903 306 894 317 q 929 296 913 296 l 1261 296 q 1279 300 1268 297 q 1301 332 1301 306 z "},"Š":{"ha":1078,"x_min":26,"x_max":1011,"o":"m 26 886 q 35 914 26 907 q 49 919 38 917 q 69 922 61 922 q 74 922 74 922 q 76 921 75 921 l 807 921 q 842 886 842 921 l 842 801 q 807 767 842 767 l 468 767 q 440 756 447 767 l 440 492 q 471 458 440 458 l 976 458 q 1011 425 1011 458 l 1011 25 q 978 -10 1011 -10 l 231 -10 q 196 25 196 -10 l 196 114 q 231 146 196 146 l 569 146 q 604 179 604 146 l 604 267 q 569 300 604 300 l 67 300 q 39 308 50 300 q 28 329 28 315 l 26 886 m 611 1229 q 633 1263 633 1235 l 633 1350 q 671 1385 633 1385 l 846 1385 q 873 1373 864 1385 q 882 1346 882 1361 l 882 1026 q 850 992 882 992 l 196 992 q 164 1026 164 992 l 164 1346 q 173 1373 164 1361 q 200 1385 182 1385 l 375 1385 q 413 1350 413 1385 l 413 1263 q 435 1229 413 1235 l 611 1229 z "},"‹":{"ha":547,"x_min":22,"x_max":481,"o":"m 479 836 l 479 765 q 451 736 479 736 l 378 736 q 350 714 350 736 l 350 515 q 378 489 350 489 l 450 489 q 481 463 481 489 l 481 143 q 451 117 481 117 l 201 117 q 174 143 174 117 l 174 339 q 150 374 174 344 q 98 437 126 403 q 46 500 69 471 q 22 536 22 529 l 22 592 l 156 736 q 174 749 164 747 q 183 765 183 750 l 183 836 q 211 863 183 863 l 451 863 q 479 836 479 863 z "},"Œ":{"ha":1699,"x_min":35,"x_max":1632,"o":"m 161 147 q 197 114 197 147 l 197 25 q 233 -8 197 -8 l 979 -8 q 985 -8 982 -8 q 992 -7 989 -7 l 1596 -7 q 1632 26 1632 -7 l 1632 115 q 1596 150 1632 150 l 1093 150 q 1058 182 1058 150 l 1058 350 q 1093 382 1058 382 l 1432 382 q 1467 419 1467 382 l 1467 506 q 1459 528 1467 519 q 1432 538 1451 538 l 1093 538 q 1058 572 1058 538 l 1058 732 q 1093 767 1058 767 l 1594 767 q 1631 803 1631 767 l 1631 888 q 1594 922 1631 922 l 72 922 q 35 888 38 922 l 35 181 q 72 147 35 147 l 161 147 m 651 733 l 651 150 l 476 150 q 442 183 442 150 l 442 732 q 476 767 442 767 l 681 767 q 651 733 651 763 z "},"Ž":{"ha":1074,"x_min":26,"x_max":1007,"o":"m 1007 333 q 971 300 1007 300 l 468 300 q 432 267 432 300 l 432 179 q 468 146 432 146 l 807 146 q 842 114 842 146 l 842 25 q 807 -10 842 -10 l 60 -10 q 26 25 26 -10 l 26 425 q 61 458 26 458 l 567 458 q 597 492 597 458 l 597 756 q 569 767 590 767 l 231 767 q 196 801 196 767 l 196 886 q 231 921 196 921 l 983 921 q 999 912 994 921 q 1006 892 1003 903 l 1007 888 l 1007 333 m 611 1229 q 633 1263 633 1235 l 633 1350 q 671 1385 633 1385 l 846 1385 q 873 1373 864 1385 q 882 1346 882 1361 l 882 1026 q 850 992 882 992 l 196 992 q 164 1026 164 992 l 164 1346 q 173 1373 164 1361 q 200 1385 182 1385 l 375 1385 q 413 1350 413 1385 l 413 1263 q 435 1229 413 1235 l 611 1229 z "},"‘":{"ha":497,"x_min":25,"x_max":431,"o":"m 25 731 l 26 731 l 26 601 q 28 590 26 594 l 28 563 q 65 526 28 526 l 399 526 q 431 563 431 526 l 431 881 q 422 908 431 896 q 396 919 414 919 l 219 919 q 183 885 183 919 l 183 799 q 161 765 183 769 l 65 765 q 46 761 54 765 q 25 731 25 757 z "},"’":{"ha":497,"x_min":25,"x_max":431,"o":"m 431 717 l 429 717 l 429 846 l 429 857 l 429 885 q 390 921 429 921 l 57 921 q 25 885 25 921 l 25 567 q 33 540 25 551 q 60 528 42 528 l 236 528 q 272 563 272 528 l 272 649 q 294 682 272 678 l 390 682 q 410 686 401 682 q 431 717 431 690 z "},"“":{"ha":939,"x_min":25,"x_max":872,"o":"m 467 731 l 468 731 l 468 601 l 468 590 l 468 563 q 507 526 468 526 l 840 526 q 872 563 872 526 l 872 881 q 864 908 872 896 q 838 919 856 919 l 661 919 q 625 885 625 919 l 625 799 q 601 765 625 769 l 507 765 q 488 761 496 765 q 467 731 467 757 m 25 731 l 26 731 l 26 601 q 28 590 26 594 l 28 563 q 65 526 28 526 l 399 526 q 431 563 431 526 l 431 881 q 422 908 431 896 q 396 919 414 919 l 219 919 q 183 885 183 919 l 183 799 q 161 765 183 769 l 65 765 q 46 761 54 765 q 25 731 25 757 z "},"”":{"ha":939,"x_min":25,"x_max":872,"o":"m 431 717 l 429 717 l 429 846 l 429 857 l 429 885 q 390 921 429 921 l 57 921 q 25 885 25 921 l 25 567 q 33 540 25 551 q 60 528 42 528 l 236 528 q 272 563 272 528 l 272 649 q 294 682 272 678 l 390 682 q 410 686 401 682 q 431 717 431 690 m 872 717 l 871 717 l 871 846 q 869 857 871 854 l 869 885 q 832 921 869 921 l 499 921 q 467 885 467 921 l 467 567 q 475 540 467 551 q 501 528 483 528 l 678 528 q 714 563 714 528 l 714 649 q 736 682 714 678 l 832 682 q 851 686 843 682 q 872 717 872 690 z "},"•":{"ha":260,"x_min":31,"x_max":193,"o":"m 161 761 q 193 733 193 761 l 193 178 q 164 147 193 147 l 31 147 l 31 728 q 67 761 31 761 l 161 761 z "},"–":{"ha":650,"x_min":29,"x_max":583,"o":"m 546 374 q 583 411 583 374 l 583 582 q 549 614 583 614 l 64 614 q 37 605 44 614 q 29 581 29 596 l 29 410 q 64 374 29 374 l 546 374 z "},"—":{"ha":810,"x_min":29,"x_max":743,"o":"m 706 374 q 743 411 743 374 l 743 582 q 736 606 743 597 q 710 614 729 614 l 64 614 q 37 605 44 614 q 29 581 29 596 l 29 410 q 64 374 29 374 l 706 374 z "},"˜":{"ha":651,"x_min":29,"x_max":585,"o":"m 547 1033 q 560 1031 556 1031 q 577 1037 569 1031 q 585 1054 585 1043 l 585 1231 q 550 1274 582 1264 q 460 1290 504 1290 q 382 1281 421 1290 q 305 1262 343 1272 q 227 1242 267 1251 q 149 1233 188 1233 q 103 1237 125 1233 q 57 1250 81 1240 l 44 1253 q 31 1241 33 1246 q 29 1229 29 1236 l 29 1057 q 36 1027 31 1042 q 57 1008 42 1013 q 103 994 81 997 q 149 990 125 990 l 458 1050 q 502 1047 481 1050 q 547 1033 524 1043 z "},"™":{"ha":1671,"x_min":42,"x_max":1604,"o":"m 531 974 l 529 936 q 550 914 529 914 l 606 914 q 626 894 626 914 l 626 861 q 606 838 626 838 l 475 838 q 456 821 456 838 l 456 454 q 433 435 456 435 l 233 435 q 213 454 213 435 l 213 819 q 189 838 213 838 l 60 838 q 42 854 42 838 l 42 861 l 42 974 q 64 992 42 992 l 508 992 q 531 974 531 992 m 1604 878 l 1604 454 q 1583 433 1604 433 l 1381 433 q 1361 453 1361 433 l 1361 878 q 1339 899 1361 899 l 1283 899 q 1263 882 1263 899 l 1263 454 q 1250 436 1263 438 q 1239 433 1244 433 l 1036 433 q 1017 453 1017 433 l 1017 878 q 996 899 1017 899 l 938 899 q 918 882 918 899 l 918 454 q 896 435 918 435 l 696 435 q 674 454 674 435 l 674 971 q 694 992 674 992 l 1486 992 q 1507 971 1507 992 l 1507 921 q 1528 899 1507 899 l 1583 899 q 1598 893 1592 899 q 1604 878 1604 888 z "},"š":{"ha":1078,"x_min":26,"x_max":1011,"o":"m 26 886 q 35 914 26 907 q 49 919 38 917 q 69 922 61 922 q 74 922 74 922 q 76 921 75 921 l 807 921 q 842 886 842 921 l 842 801 q 807 767 842 767 l 468 767 q 440 756 447 767 l 440 492 q 471 458 440 458 l 976 458 q 1011 425 1011 458 l 1011 25 q 978 -10 1011 -10 l 231 -10 q 196 25 196 -10 l 196 114 q 231 146 196 146 l 569 146 q 604 179 604 146 l 604 267 q 569 300 604 300 l 67 300 q 39 308 50 300 q 28 329 28 315 l 26 886 m 611 1229 q 633 1263 633 1235 l 633 1350 q 671 1385 633 1385 l 846 1385 q 873 1373 864 1385 q 882 1346 882 1361 l 882 1026 q 850 992 882 992 l 196 992 q 164 1026 164 992 l 164 1346 q 173 1373 164 1361 q 200 1385 182 1385 l 375 1385 q 413 1350 413 1385 l 413 1263 q 435 1229 413 1235 l 611 1229 z "},"›":{"ha":547,"x_min":22,"x_max":481,"o":"m 24 836 l 24 765 q 51 736 24 736 l 125 736 q 153 714 153 736 l 153 515 q 125 489 153 489 l 53 489 q 22 463 22 489 l 22 143 q 51 117 22 117 l 301 117 q 329 143 329 117 l 329 339 q 353 374 329 344 q 405 437 376 403 q 457 500 433 471 q 481 536 481 529 l 481 592 l 347 736 q 329 749 339 747 q 319 765 319 750 l 319 836 q 292 863 319 863 l 51 863 q 24 836 24 863 z "},"œ":{"ha":1738,"x_min":35,"x_max":1671,"o":"m 1097 179 l 1097 267 q 1136 300 1097 300 l 1633 300 q 1671 333 1671 300 l 1671 888 q 1635 922 1671 922 l 233 922 q 197 890 197 922 l 197 803 q 161 767 197 767 l 72 767 q 35 733 35 767 l 35 26 q 72 -7 36 -7 l 1472 -7 q 1507 25 1507 -11 l 1507 114 q 1472 146 1507 146 l 1136 146 q 1097 179 1097 146 m 442 182 l 442 731 q 476 767 442 767 l 676 767 q 675 765 675 767 q 675 765 675 765 q 678 760 675 763 q 682 756 682 757 q 689 740 688 746 q 690 731 690 735 l 690 150 l 476 150 q 442 182 442 150 m 1228 458 l 1136 458 q 1097 492 1097 458 l 1097 731 q 1136 767 1097 767 l 1228 767 q 1264 731 1264 767 l 1264 492 q 1228 458 1264 458 z "},"ž":{"ha":1074,"x_min":26,"x_max":1007,"o":"m 1007 333 q 971 300 1007 300 l 468 300 q 432 267 432 300 l 432 179 q 468 146 432 146 l 807 146 q 842 114 842 146 l 842 25 q 807 -10 842 -10 l 60 -10 q 26 25 26 -10 l 26 425 q 61 458 26 458 l 567 458 q 597 492 597 458 l 597 756 q 569 767 590 767 l 231 767 q 196 801 196 767 l 196 886 q 231 921 196 921 l 983 921 q 999 912 994 921 q 1006 892 1003 903 l 1007 888 l 1007 333 m 611 1229 q 633 1263 633 1235 l 633 1350 q 671 1385 633 1385 l 846 1385 q 873 1373 864 1385 q 882 1346 882 1361 l 882 1026 q 850 992 882 992 l 196 992 q 164 1026 164 992 l 164 1346 q 173 1373 164 1361 q 200 1385 182 1385 l 375 1385 q 413 1350 413 1385 l 413 1263 q 435 1229 413 1235 l 611 1229 z "},"Ÿ":{"ha":1078,"x_min":26,"x_max":1011,"o":"m 606 897 q 611 918 606 913 q 635 924 617 924 l 814 924 q 840 914 831 924 q 849 888 849 907 l 849 801 q 885 767 849 767 l 976 767 q 1011 731 1011 767 l 1011 25 q 978 -10 1011 -10 l 231 -10 q 196 25 196 -10 l 196 114 q 231 146 196 146 l 569 146 q 604 179 604 146 l 604 267 q 569 300 604 300 l 67 300 q 31 333 31 300 l 31 886 l 26 886 q 60 922 26 922 l 400 922 q 425 913 413 922 q 440 893 438 904 l 440 492 q 476 458 440 458 l 569 458 q 604 492 604 458 l 604 872 l 606 897 m 475 1026 q 438 992 475 992 l 103 992 q 71 1026 71 992 l 71 1194 q 103 1231 71 1231 l 438 1231 q 475 1194 475 1231 l 475 1026 m 971 1026 q 933 992 971 992 l 599 992 q 567 1026 567 992 l 567 1194 q 599 1231 567 1231 l 933 1231 q 971 1194 971 1231 l 971 1026 z "}," ":{"ha":589,"x_min":0,"x_max":0,"o":""},"¡":{"ha":506,"x_min":32,"x_max":439,"o":"m 438 564 l 438 25 q 406 -4 438 -4 l 68 -4 q 32 28 32 -4 l 32 410 q 68 443 32 443 l 154 443 q 190 476 190 443 l 190 564 q 226 599 190 599 l 403 599 q 438 564 438 599 m 35 886 q 74 921 35 921 l 407 921 q 439 886 439 921 l 439 718 q 407 682 439 682 l 74 682 q 35 718 35 682 l 35 886 z "},"¢":{"ha":829,"x_min":28,"x_max":763,"o":"m 599 35 l 599 81 l 736 81 q 763 106 763 81 l 763 172 q 736 199 763 199 l 599 199 l 599 661 l 736 661 q 763 688 763 661 l 763 753 q 736 778 763 778 l 599 778 l 599 813 q 574 833 599 833 l 485 833 q 458 807 458 829 l 458 778 l 176 778 q 150 753 150 778 l 150 689 q 124 661 150 661 l 57 661 q 28 636 28 661 l 28 106 q 57 81 29 81 l 526 81 l 526 32 q 554 6 526 6 l 572 10 q 599 35 599 10 m 333 222 l 333 633 q 358 661 333 661 l 458 661 l 458 218 q 465 199 458 201 l 358 199 q 333 222 333 199 z "},"£":{"ha":1079,"x_min":35,"x_max":1013,"o":"m 35 181 l 35 888 q 72 921 35 921 l 407 921 q 442 888 442 921 l 442 564 q 476 532 442 532 l 814 532 q 849 494 849 532 l 849 408 q 841 385 849 394 q 814 376 833 376 l 476 376 q 442 342 442 376 l 442 182 q 476 147 442 147 l 978 147 q 1013 111 1013 147 l 1013 26 q 978 -8 1013 -8 l 232 -8 q 196 26 196 -8 l 196 111 q 161 147 196 147 l 69 147 q 35 181 35 147 z "},"¤":{"ha":1081,"x_min":32,"x_max":1014,"o":"m 33 893 l 33 804 q 68 767 33 767 l 163 767 q 194 739 194 767 l 194 492 q 163 458 194 458 l 69 458 q 32 425 32 458 l 32 26 q 68 -7 32 -7 l 163 -7 q 196 26 196 -7 l 196 271 q 232 303 196 303 l 322 303 q 360 271 360 303 l 360 26 q 394 -7 360 -7 l 978 -7 q 1014 26 1014 -7 l 1014 239 q 981 272 1014 272 l 722 272 q 686 304 686 272 l 686 426 q 722 460 686 460 l 978 460 q 1011 490 1011 460 l 1011 893 q 975 925 1011 925 l 758 925 q 722 894 722 925 l 722 649 q 688 615 722 615 l 439 615 q 406 649 406 615 l 406 893 q 368 925 406 925 l 68 925 q 33 893 33 925 m 576 513 q 608 485 608 513 l 608 254 q 576 224 604 224 l 443 224 l 443 479 q 482 513 447 513 l 576 513 z "},"¥":{"ha":1226,"x_min":26,"x_max":1160,"o":"m 1121 128 q 1160 165 1160 128 l 1160 336 q 1125 368 1160 368 l 1011 368 l 1011 461 l 1121 461 q 1160 500 1160 461 l 1160 671 q 1152 694 1160 685 q 1125 703 1144 703 l 1011 703 l 1011 731 q 976 767 1011 767 l 885 767 q 849 801 849 767 l 849 888 q 840 914 849 907 q 814 924 831 924 l 635 924 q 600 893 600 924 l 604 893 l 604 492 q 569 458 604 458 l 476 458 q 440 492 440 458 l 440 893 q 425 913 438 904 q 400 922 413 922 l 60 922 q 26 886 26 922 l 31 886 l 31 333 q 67 300 31 300 l 569 300 q 604 267 604 300 l 604 179 q 569 146 604 146 l 231 146 q 196 114 196 146 l 196 25 q 231 -10 196 -10 l 978 -10 q 1011 25 1011 -10 l 1011 128 l 1121 128 z "},"¦":{"ha":507,"x_min":35,"x_max":440,"o":"m 440 -67 l 440 421 q 407 450 440 450 l 71 450 q 35 418 35 450 l 35 181 q 71 147 35 147 l 157 147 q 193 114 193 147 l 193 -67 q 229 -100 193 -100 l 406 -100 q 440 -67 440 -100 m 35 965 l 35 518 q 67 493 35 496 l 403 493 q 439 524 439 493 l 439 719 q 404 751 439 750 l 318 751 q 282 785 282 751 l 282 968 q 247 999 282 999 l 71 999 q 35 965 35 999 z "},"§":{"ha":1088,"x_min":25,"x_max":1021,"o":"m 36 1081 l 36 801 l 33 799 q 25 771 25 792 l 25 214 q 38 192 26 200 q 65 185 49 185 l 574 185 q 603 151 603 182 l 603 64 q 568 31 603 31 l 229 31 q 194 -1 194 31 l 194 -90 q 229 -125 194 -125 l 976 -125 q 1010 -90 1010 -125 l 1010 192 q 1021 219 1021 199 l 1021 619 q 986 653 1021 653 l 819 653 q 840 686 840 658 l 840 771 q 806 806 840 806 l 450 806 l 450 950 q 478 961 457 961 l 817 961 q 851 996 851 961 l 851 1081 q 817 1115 851 1115 l 86 1115 q 84 1116 85 1115 q 79 1117 83 1117 q 59 1114 71 1117 q 44 1108 47 1111 q 36 1081 36 1101 m 439 494 l 579 494 q 614 461 614 494 l 614 374 q 596 343 614 349 l 469 343 q 439 376 439 343 l 439 494 z "},"¨":{"ha":993,"x_min":26,"x_max":926,"o":"m 431 1026 q 393 992 431 992 l 58 992 q 26 1026 26 992 l 26 1194 q 58 1231 26 1231 l 393 1231 q 431 1194 431 1231 l 431 1026 m 926 1026 q 889 992 926 992 l 554 992 q 522 1026 522 992 l 522 1194 q 554 1231 522 1231 l 889 1231 q 926 1194 926 1231 l 926 1026 z "},"©":{"ha":1078,"x_min":29,"x_max":1011,"o":"m 1011 176 q 999 157 1011 164 q 972 150 988 150 l 881 150 q 846 115 846 150 l 846 28 q 811 -7 846 -7 l 60 -7 q 39 3 44 -7 q 32 13 35 6 q 29 28 29 19 l 29 732 q 42 757 31 747 q 67 767 54 767 l 158 767 q 193 803 193 767 l 193 888 q 229 922 193 922 l 978 922 q 1000 914 996 922 q 1011 888 1011 907 l 1011 176 m 275 656 l 221 656 q 199 636 199 656 l 199 211 q 221 192 201 192 l 765 192 q 786 211 786 192 l 786 265 q 765 286 786 286 l 464 286 q 443 306 443 286 l 443 635 q 464 656 443 656 l 765 656 q 786 676 786 656 l 786 731 q 765 749 786 749 l 318 749 q 296 731 296 749 l 296 678 q 275 656 296 656 z "},"ª":{"ha":689,"x_min":35,"x_max":622,"o":"m 379 885 l 379 833 q 357 813 379 813 l 57 813 q 35 793 35 813 l 35 460 q 56 439 35 439 l 503 439 q 525 460 525 439 l 525 513 q 544 535 525 535 l 600 535 q 622 554 622 535 l 622 979 q 601 997 622 997 l 154 997 q 132 979 132 997 l 132 926 q 154 904 132 904 l 357 904 q 379 885 379 904 m 301 719 l 357 719 q 379 700 379 719 l 379 554 q 357 535 379 535 l 301 535 q 279 554 279 535 l 279 700 q 301 719 279 719 z "},"«":{"ha":1025,"x_min":22,"x_max":958,"o":"m 479 836 l 479 765 q 451 736 479 736 l 378 736 q 350 714 350 736 l 350 515 q 378 489 350 489 l 450 489 q 481 463 481 489 l 481 143 q 451 117 481 117 l 201 117 q 174 143 174 117 l 174 339 q 150 374 174 344 q 98 437 126 403 q 46 500 69 471 q 22 536 22 529 l 22 592 l 156 736 q 174 749 164 747 q 183 765 183 750 l 183 836 q 211 863 183 863 l 451 863 q 479 836 479 863 m 957 838 l 957 767 q 929 738 957 738 l 856 738 q 828 715 828 738 l 828 517 q 856 490 828 490 l 928 490 q 958 464 958 490 l 958 144 q 929 118 958 118 l 679 118 q 651 144 651 118 l 651 340 q 628 375 651 346 q 576 438 604 404 q 524 501 547 472 q 500 538 500 531 l 500 593 l 633 738 q 651 750 642 749 q 661 767 661 751 l 661 838 q 689 864 661 864 l 929 864 q 957 838 957 864 z "},"¬":{"ha":810,"x_min":29,"x_max":743,"o":"m 743 206 l 743 582 q 736 606 743 597 q 710 614 729 614 l 64 614 q 37 605 44 614 q 29 581 29 596 l 29 410 q 64 374 29 374 l 340 374 l 340 206 q 372 171 340 171 l 706 171 q 743 206 743 171 z "},"­":{"ha":479,"x_min":29,"x_max":413,"o":"m 374 374 q 413 411 413 374 l 413 582 q 378 614 413 614 l 64 614 q 37 605 44 614 q 29 581 29 596 l 29 410 q 64 374 29 374 l 374 374 z "},"®":{"ha":1078,"x_min":29,"x_max":1011,"o":"m 1011 176 q 999 157 1011 164 q 972 150 988 150 l 881 150 q 846 115 846 150 l 846 28 q 811 -7 846 -7 l 60 -7 q 39 3 44 -7 q 32 13 35 6 q 29 28 29 19 l 29 732 q 42 757 31 747 q 67 767 54 767 l 158 767 q 193 803 193 767 l 193 888 q 229 922 193 922 l 978 922 q 1000 914 996 922 q 1011 888 1011 907 l 1011 176 m 260 621 l 260 197 q 281 176 260 176 l 483 176 q 504 196 504 176 l 504 621 q 526 642 504 642 l 582 642 q 603 621 603 642 l 603 476 q 624 457 603 457 l 825 457 q 849 476 849 457 l 849 714 q 826 735 849 735 l 379 735 q 357 714 357 735 l 357 664 q 336 642 357 642 l 282 642 q 267 636 275 642 q 260 621 260 631 z "},"¯":{"ha":783,"x_min":4,"x_max":717,"o":"m 679 1019 q 717 1057 717 1019 l 717 1171 q 685 1199 717 1199 l 39 1199 q 12 1190 19 1199 q 4 1165 4 1181 l 4 1053 q 38 1019 4 1019 l 679 1019 z "},"°":{"ha":685,"x_min":29,"x_max":618,"o":"m 29 546 l 29 968 q 35 985 29 981 q 47 989 39 989 l 497 989 q 518 968 518 989 l 518 918 q 539 896 518 896 l 594 896 q 610 890 603 896 q 618 875 617 885 l 618 453 q 611 438 618 440 q 599 432 607 432 l 149 432 q 126 453 126 432 l 126 506 q 106 526 126 526 l 51 526 q 37 532 44 526 q 29 546 29 538 m 293 896 q 274 879 274 896 l 274 546 q 292 528 274 528 l 372 528 l 372 875 q 351 896 372 896 l 293 896 z "},"±":{"ha":650,"x_min":28,"x_max":583,"o":"m 185 326 q 224 289 185 289 l 394 289 q 417 297 408 289 q 426 324 426 304 l 426 446 l 546 446 q 583 483 583 446 l 583 656 q 576 678 583 669 q 549 688 568 688 l 426 688 l 426 808 q 417 835 426 828 q 393 843 408 843 l 222 843 q 185 808 185 843 l 185 688 l 64 688 q 37 678 44 688 q 29 654 29 668 l 29 483 q 64 446 29 446 l 185 446 l 185 326 m 544 -8 q 582 29 582 -8 l 582 200 q 547 232 582 232 l 63 232 q 35 223 43 232 q 28 200 28 214 l 28 28 q 63 -8 28 -8 l 544 -8 z "},"²":{"ha":694,"x_min":36,"x_max":628,"o":"m 628 975 q 622 992 628 988 q 611 996 618 996 l 293 996 q 272 975 272 996 l 272 924 q 293 903 272 903 l 363 903 q 379 896 375 903 l 379 738 q 361 718 379 718 l 57 718 q 36 699 36 718 l 36 438 l 604 438 q 625 458 625 438 l 625 510 q 604 531 625 531 l 301 531 q 281 550 281 531 l 281 603 q 301 624 281 624 l 603 624 q 625 643 625 624 l 625 974 l 628 975 z "},"³":{"ha":699,"x_min":44,"x_max":632,"o":"m 632 553 l 632 978 q 610 999 632 999 l 65 999 q 44 978 44 999 l 44 926 q 65 906 44 906 l 367 906 q 389 885 389 906 l 389 785 q 367 765 389 765 l 165 765 q 143 743 143 765 l 143 690 q 165 672 143 672 l 367 672 q 389 651 389 672 l 389 554 q 367 535 389 535 l 67 535 q 46 514 46 535 l 46 461 q 67 440 46 440 l 513 440 q 535 461 535 440 l 535 514 q 554 533 535 533 l 611 533 q 632 553 632 533 z "},"´":{"ha":501,"x_min":28,"x_max":435,"o":"m 435 1178 l 433 1178 l 433 1308 q 432 1319 433 1315 l 432 1347 q 394 1382 432 1382 l 60 1382 q 28 1347 28 1382 l 28 1028 q 37 1001 28 1013 q 64 989 46 989 l 239 989 q 276 1024 276 989 l 276 1111 q 299 1144 276 1139 l 394 1144 q 413 1147 401 1144 q 435 1178 435 1153 z "},"µ":{"ha":1075,"x_min":28,"x_max":1008,"o":"m 29 -128 q 67 -162 29 -162 l 158 -162 q 194 -128 194 -162 l 194 -7 l 817 -7 q 846 26 846 -7 l 846 114 q 879 146 846 146 l 972 146 q 998 157 988 146 q 1008 181 1008 168 l 1008 886 q 972 922 1008 922 l 635 922 q 600 893 600 922 l 600 181 q 565 147 600 147 l 469 147 q 443 154 450 147 q 436 178 436 161 l 436 886 q 401 921 436 921 l 65 921 q 28 886 28 921 l 29 -128 z "},"¶":{"ha":1081,"x_min":35,"x_max":1014,"o":"m 146 24 q 179 -11 146 -11 l 357 -11 q 385 -3 374 -11 q 394 25 394 10 l 394 614 q 429 649 394 649 l 521 649 q 554 681 554 649 l 554 767 l 607 767 l 607 25 q 642 -10 607 -10 l 979 -10 q 1014 25 1014 -10 l 1014 731 q 976 767 1014 767 l 886 767 q 853 801 853 767 l 853 888 q 817 922 853 922 l 69 922 q 35 888 35 922 l 35 333 q 38 313 35 325 q 44 290 40 301 q 55 272 49 279 q 69 264 61 264 l 146 264 l 146 24 z "},"·":{"ha":507,"x_min":36,"x_max":440,"o":"m 440 407 q 403 372 440 372 l 68 372 q 36 407 36 372 l 36 575 q 68 611 36 611 l 403 611 q 440 575 440 611 l 440 407 z "},"¸":{"ha":506,"x_min":33,"x_max":439,"o":"m 33 -174 l 35 -174 l 35 -303 l 35 -314 l 35 -343 q 74 -378 35 -378 l 407 -378 q 439 -343 439 -378 l 439 -24 q 431 3 439 -8 q 404 15 422 15 l 228 15 q 192 -19 192 15 l 192 -107 q 169 -139 192 -135 l 74 -139 q 54 -143 63 -139 q 33 -174 33 -147 z "},"¹":{"ha":344,"x_min":35,"x_max":278,"o":"m 35 454 l 35 975 q 54 992 35 992 l 257 992 q 278 974 278 992 l 278 547 q 257 528 278 528 l 204 528 q 183 507 183 528 l 183 454 q 161 433 183 433 l 56 433 q 35 454 35 433 z "},"º":{"ha":685,"x_min":29,"x_max":618,"o":"m 618 546 l 618 968 q 613 985 618 981 q 600 989 608 989 l 150 989 q 129 968 129 989 l 129 918 q 108 896 129 896 l 53 896 q 38 890 44 896 q 29 875 31 885 l 29 453 q 36 438 29 440 q 49 432 40 432 l 499 432 q 521 453 521 432 l 521 506 q 542 526 521 526 l 596 526 q 610 532 603 526 q 618 546 618 538 m 354 896 q 374 879 374 896 l 374 546 q 356 528 374 528 l 275 528 l 275 875 q 296 896 275 896 l 354 896 z "},"»":{"ha":1025,"x_min":22,"x_max":958,"o":"m 501 836 l 501 765 q 529 736 501 736 l 603 736 q 631 714 631 736 l 631 515 q 603 489 631 489 l 531 489 q 500 463 500 489 l 500 143 q 529 117 500 117 l 779 117 q 807 143 807 117 l 807 339 q 831 374 807 344 q 883 437 854 403 q 935 500 911 471 q 958 536 958 529 l 958 592 l 825 736 q 807 749 817 747 q 797 765 797 750 l 797 836 q 769 863 797 863 l 529 863 q 501 836 501 863 m 24 838 l 24 767 q 51 738 24 738 l 125 738 q 153 715 153 738 l 153 517 q 125 490 153 490 l 53 490 q 22 464 22 490 l 22 144 q 51 118 22 118 l 301 118 q 329 144 329 118 l 329 340 q 353 375 329 346 q 405 438 376 404 q 457 501 433 472 q 481 538 481 531 l 481 593 l 347 738 q 329 750 339 749 q 319 767 319 751 l 319 838 q 292 864 319 864 l 51 864 q 24 838 24 864 z "},"¼":{"ha":2154,"x_min":28,"x_max":2088,"o":"m 2088 579 q 1910 682 2088 617 q 2007 760 2007 694 q 2006 768 2007 764 q 2004 778 2006 772 l 1732 846 q 1788 928 1788 860 l 1760 956 l 1432 956 l 1446 1038 l 1350 1050 l 1078 996 l 1064 1010 l 1078 1050 l 1024 1092 l 778 968 l 656 1050 q 492 886 585 1022 l 342 942 l 333 942 q 272 750 272 942 l 110 764 l 96 682 l 176 586 l 28 560 l 42 492 l 192 422 l 110 354 q 150 300 110 300 l 368 260 l 326 218 l 326 164 l 682 136 l 668 68 l 710 42 l 1050 96 l 1050 14 l 1092 0 l 1350 136 l 1432 54 l 1501 68 l 1636 218 q 1775 163 1722 163 q 1828 192 1811 163 l 1842 354 l 1978 326 q 2022 385 2022 339 q 2022 397 2022 390 q 2019 410 2021 403 l 1938 518 l 2060 518 l 2086 574 q 2088 579 2088 575 m 2046 560 l 1869 546 q 1982 381 1982 421 q 1978 368 1982 374 l 1800 396 l 1788 204 l 1610 260 l 1474 96 l 1350 176 l 1078 42 l 1092 96 l 1050 150 l 710 82 l 750 176 l 368 192 l 478 272 l 150 342 l 300 410 l 68 532 l 246 546 l 150 668 l 136 724 l 314 710 l 342 900 q 475 839 424 839 q 506 846 489 839 l 656 1010 l 764 928 l 1010 1050 l 1038 1038 l 1050 956 l 1406 1010 l 1378 914 l 1746 914 l 1636 832 l 1950 764 l 1965 736 l 1950 736 l 1814 696 l 2032 586 l 2046 560 m 1779 654 l 1721 669 l 1711 483 l 1750 478 l 1779 654 m 1757 404 l 1721 419 l 1689 394 l 1718 365 l 1757 404 m 1656 418 l 1656 656 l 1614 669 l 1606 503 l 1465 654 l 1471 414 l 1508 419 l 1508 536 q 1656 418 1596 418 m 1426 419 l 1422 600 q 1360 675 1407 675 q 1329 668 1347 675 q 1231 429 1242 549 l 1279 429 q 1340 483 1310 483 q 1397 429 1369 483 l 1426 419 m 1201 669 l 1157 660 l 1132 414 l 1190 432 l 1201 669 m 1088 408 l 1088 646 l 1044 660 l 1038 492 l 897 644 l 901 404 l 939 410 l 939 526 q 1088 408 1028 408 m 869 576 q 771 657 851 657 q 758 657 765 657 q 746 656 753 657 q 656 447 656 603 q 738 406 669 406 q 756 406 746 406 q 776 408 765 407 q 869 576 847 408 m 636 664 q 461 525 461 636 q 462 510 461 518 q 464 493 463 501 q 557 388 485 388 q 606 397 581 388 l 603 439 q 557 433 579 433 q 504 481 504 433 q 542 576 504 532 q 606 610 568 610 q 632 606 617 610 l 636 664 m 436 660 l 392 650 l 368 404 l 425 422 l 436 660 m 1382 536 l 1304 536 l 1353 615 l 1382 536 m 826 542 q 804 472 826 513 q 740 450 765 450 q 700 510 700 450 q 701 526 700 521 q 774 601 732 601 q 818 571 801 601 q 826 542 826 558 z "},"½":{"ha":2154,"x_min":28,"x_max":2088,"o":"m 2088 579 q 1910 682 2088 617 q 2007 760 2007 694 q 2006 768 2007 764 q 2004 778 2006 772 l 1732 846 q 1788 928 1788 860 l 1760 956 l 1432 956 l 1446 1038 l 1350 1050 l 1078 996 l 1064 1010 l 1078 1050 l 1024 1092 l 778 968 l 656 1050 q 492 886 585 1022 l 342 942 l 333 942 q 272 750 272 942 l 110 764 l 96 682 l 176 586 l 28 560 l 42 492 l 192 422 l 110 354 q 150 300 110 300 l 368 260 l 326 218 l 326 164 l 682 136 l 668 68 l 710 42 l 1050 96 l 1050 14 l 1092 0 l 1350 136 l 1432 54 l 1501 68 l 1636 218 q 1775 163 1722 163 q 1828 192 1811 163 l 1842 354 l 1978 326 q 2022 385 2022 339 q 2022 397 2022 390 q 2019 410 2021 403 l 1938 518 l 2060 518 l 2086 574 q 2088 579 2088 575 m 1779 654 l 1750 478 l 1711 483 l 1721 669 l 1779 654 m 1757 404 l 1718 365 l 1689 394 l 1721 419 l 1757 404 m 1656 418 q 1508 536 1596 418 l 1508 419 l 1471 414 l 1465 654 l 1606 503 l 1614 669 l 1656 656 l 1656 418 m 1426 419 l 1397 429 q 1340 483 1369 483 q 1279 429 1310 483 l 1231 429 q 1329 668 1242 549 q 1360 675 1347 675 q 1422 600 1407 675 l 1426 419 m 1201 669 l 1190 432 l 1132 414 l 1157 660 l 1201 669 m 1088 408 q 939 526 1028 408 l 939 410 l 901 404 l 897 644 l 1038 492 l 1044 660 l 1088 646 l 1088 408 m 869 576 q 776 408 847 408 q 756 406 765 407 q 738 406 746 406 q 656 447 669 406 q 746 656 656 603 q 758 657 753 657 q 771 657 765 657 q 869 576 851 657 m 636 664 l 632 606 q 606 610 617 610 q 542 576 568 610 q 504 481 504 532 q 557 433 504 433 q 603 439 579 433 l 606 397 q 557 388 581 388 q 464 493 485 388 q 462 510 463 501 q 461 525 461 518 q 636 664 461 636 m 436 660 l 425 422 l 368 404 l 392 650 l 436 660 m 1382 536 l 1353 615 l 1304 536 l 1382 536 m 826 542 q 818 571 826 558 q 774 601 801 601 q 701 526 732 601 q 700 510 700 521 q 740 450 700 450 q 804 472 765 450 q 826 542 826 513 z "},"¾":{"ha":2154,"x_min":28,"x_max":2088,"o":"m 2088 579 q 1910 682 2088 617 q 2007 760 2007 694 q 2006 768 2007 764 q 2004 778 2006 772 l 1732 846 q 1788 928 1788 860 l 1760 956 l 1432 956 l 1446 1038 l 1350 1050 l 1078 996 l 1064 1010 l 1078 1050 l 1024 1092 l 778 968 l 656 1050 q 492 886 585 1022 l 342 942 l 333 942 q 272 750 272 942 l 110 764 l 96 682 l 176 586 l 28 560 l 42 492 l 192 422 l 110 354 q 150 300 110 300 l 368 260 l 326 218 l 326 164 l 682 136 l 668 68 l 710 42 l 1050 96 l 1050 14 l 1092 0 l 1350 136 l 1432 54 l 1501 68 l 1636 218 q 1775 163 1722 163 q 1828 192 1811 163 l 1842 354 l 1978 326 q 2022 385 2022 339 q 2022 397 2022 390 q 2019 410 2021 403 l 1938 518 l 2060 518 l 2086 574 q 2088 579 2088 575 m 2046 560 l 1869 546 q 1982 381 1982 421 q 1978 368 1982 374 l 1800 396 l 1788 204 l 1610 260 l 1474 96 l 1350 176 l 1078 42 l 1092 96 l 1050 150 l 710 82 l 750 176 l 368 192 l 478 272 l 150 342 l 300 410 l 68 532 l 246 546 l 150 668 l 136 724 l 314 710 l 342 900 q 475 839 424 839 q 506 846 489 839 l 656 1010 l 764 928 l 1010 1050 l 1038 1038 l 1050 956 l 1406 1010 l 1378 914 l 1746 914 l 1636 832 l 1950 764 l 1965 736 l 1950 736 l 1814 696 l 2032 586 l 2046 560 m 1779 654 l 1721 669 l 1711 483 l 1750 478 l 1779 654 m 1757 404 l 1721 419 l 1689 394 l 1718 365 l 1757 404 m 1656 418 l 1656 656 l 1614 669 l 1606 503 l 1465 654 l 1471 414 l 1508 419 l 1508 536 q 1656 418 1596 418 m 1426 419 l 1422 600 q 1360 675 1407 675 q 1329 668 1347 675 q 1231 429 1242 549 l 1279 429 q 1340 483 1310 483 q 1397 429 1369 483 l 1426 419 m 1201 669 l 1157 660 l 1132 414 l 1190 432 l 1201 669 m 1088 408 l 1088 646 l 1044 660 l 1038 492 l 897 644 l 901 404 l 939 410 l 939 526 q 1088 408 1028 408 m 869 576 q 771 657 851 657 q 758 657 765 657 q 746 656 753 657 q 656 447 656 603 q 738 406 669 406 q 756 406 746 406 q 776 408 765 407 q 869 576 847 408 m 636 664 q 461 525 461 636 q 462 510 461 518 q 464 493 463 501 q 557 388 485 388 q 606 397 581 388 l 603 439 q 557 433 579 433 q 504 481 504 433 q 542 576 504 532 q 606 610 568 610 q 632 606 617 610 l 636 664 m 436 660 l 392 650 l 368 404 l 425 422 l 436 660 m 1382 536 l 1304 536 l 1353 615 l 1382 536 m 826 542 q 804 472 826 513 q 740 450 765 450 q 700 510 700 450 q 701 526 700 521 q 774 601 732 601 q 818 571 801 601 q 826 542 826 558 z "},"¿":{"ha":1078,"x_min":33,"x_max":1011,"o":"m 33 421 q 68 456 33 456 l 283 456 q 318 489 318 456 l 318 576 q 357 611 318 611 l 690 611 q 722 576 722 611 l 722 335 q 690 303 722 303 l 475 303 q 438 267 438 303 l 438 181 q 475 147 438 147 l 979 147 q 1011 111 1011 147 l 1011 21 q 976 -10 1011 -10 l 231 -10 q 194 21 194 -10 l 194 110 q 161 146 194 146 l 68 146 q 33 176 33 146 l 33 421 m 318 888 q 357 922 318 922 l 690 922 q 722 888 722 922 l 722 719 q 690 683 722 683 l 357 683 q 318 719 318 683 l 318 888 z "},"À":{"ha":1075,"x_min":28,"x_max":1008,"o":"m 28 732 q 39 757 28 747 q 65 767 50 767 l 157 767 q 192 803 192 767 l 192 888 q 225 922 192 922 l 972 922 q 1008 888 1008 922 l 1008 26 q 972 -7 1008 -7 l 635 -7 q 600 26 600 -7 l 600 382 l 436 382 l 436 24 q 401 -8 436 -8 l 64 -8 q 28 26 28 -8 l 28 732 m 436 539 l 600 539 l 600 738 q 567 767 600 767 l 471 767 q 436 732 436 767 l 436 539 m 304 1176 l 306 1176 l 306 1307 q 307 1318 306 1314 l 307 1346 q 344 1381 307 1381 l 679 1381 q 711 1346 711 1381 l 711 1026 q 702 999 711 1011 q 675 988 693 988 l 500 988 q 463 1022 463 988 l 463 1110 q 440 1143 463 1138 l 344 1143 q 326 1146 338 1143 q 304 1176 304 1151 z "},"Á":{"ha":1075,"x_min":28,"x_max":1008,"o":"m 436 732 q 471 767 436 767 l 567 767 q 600 738 600 767 l 600 539 l 436 539 l 436 732 m 28 26 q 64 -8 28 -8 l 401 -8 q 436 24 436 -8 l 436 382 l 600 382 l 600 26 q 635 -7 600 -7 l 972 -7 q 1008 26 1008 -7 l 1008 888 q 972 922 1008 922 l 225 922 q 192 888 192 922 l 192 803 q 157 767 192 767 l 65 767 q 39 757 50 767 q 28 732 28 747 l 28 26 m 743 1176 l 742 1176 l 742 1307 q 740 1318 742 1314 l 740 1346 q 703 1381 740 1381 l 368 1381 q 336 1346 336 1381 l 336 1026 q 345 999 336 1011 q 372 988 354 988 l 547 988 q 585 1022 585 988 l 585 1110 q 607 1143 585 1138 l 703 1143 q 721 1146 710 1143 q 743 1176 743 1151 z "},"Â":{"ha":1075,"x_min":28,"x_max":1008,"o":"m 28 26 q 64 -8 28 -8 l 401 -8 q 436 24 436 -8 l 436 382 l 600 382 l 600 26 q 635 -7 600 -7 l 972 -7 q 1008 26 1008 -7 l 1008 888 q 972 922 1008 922 l 225 922 q 192 888 192 922 l 192 803 q 157 767 192 767 l 65 767 q 39 757 50 767 q 28 732 28 747 l 28 26 m 615 1147 q 638 1114 638 1142 l 638 1026 q 675 992 638 992 l 850 992 q 877 1003 868 992 q 886 1031 886 1015 l 886 1350 q 854 1385 886 1385 l 200 1385 q 168 1350 168 1385 l 168 1031 q 177 1003 168 1015 q 204 992 186 992 l 379 992 q 417 1026 417 992 l 417 1114 q 439 1147 417 1142 l 615 1147 m 436 732 q 471 767 436 767 l 567 767 q 600 738 600 767 l 600 539 l 436 539 l 436 732 z "},"Ã":{"ha":1075,"x_min":28,"x_max":1008,"o":"m 436 732 q 471 767 436 767 l 567 767 q 600 738 600 767 l 600 539 l 436 539 l 436 732 m 28 26 q 64 -8 28 -8 l 401 -8 q 436 24 436 -8 l 436 382 l 600 382 l 600 26 q 635 -7 600 -7 l 972 -7 q 1008 26 1008 -7 l 1008 888 q 972 922 1008 922 l 225 922 q 192 888 192 922 l 192 803 q 157 767 192 767 l 65 767 q 39 757 50 767 q 28 732 28 747 l 28 26 m 767 1035 q 779 1032 775 1032 q 797 1038 789 1032 q 804 1056 804 1044 l 804 1232 q 769 1275 801 1265 q 679 1292 724 1292 q 601 1283 640 1292 q 524 1263 563 1274 q 447 1244 486 1253 q 368 1235 407 1235 q 322 1238 344 1235 q 276 1251 300 1242 l 264 1254 q 251 1242 253 1247 q 249 1231 249 1238 l 249 1058 q 256 1028 250 1043 q 276 1010 261 1014 q 322 995 300 999 q 368 992 344 992 l 678 1051 q 722 1048 700 1051 q 767 1035 743 1044 z "},"Ä":{"ha":1075,"x_min":28,"x_max":1008,"o":"m 28 732 q 39 757 28 747 q 65 767 50 767 l 157 767 q 192 803 192 767 l 192 888 q 225 922 192 922 l 972 922 q 1008 888 1008 922 l 1008 26 q 972 -7 1008 -7 l 635 -7 q 600 26 600 -7 l 600 382 l 436 382 l 436 24 q 401 -8 436 -8 l 64 -8 q 28 26 28 -8 l 28 732 m 436 539 l 600 539 l 600 738 q 567 767 600 767 l 471 767 q 436 732 436 767 l 436 539 m 475 1026 q 438 992 475 992 l 103 992 q 71 1026 71 992 l 71 1194 q 103 1231 71 1231 l 438 1231 q 475 1194 475 1231 l 475 1026 m 971 1026 q 933 992 971 992 l 599 992 q 567 1026 567 992 l 567 1194 q 599 1231 567 1231 l 933 1231 q 971 1194 971 1231 l 971 1026 z "},"Å":{"ha":1075,"x_min":28,"x_max":1008,"o":"m 28 732 q 39 757 28 747 q 65 767 50 767 l 157 767 q 192 803 192 767 l 192 888 q 225 922 192 922 l 972 922 q 1008 888 1008 922 l 1008 26 q 972 -7 1008 -7 l 635 -7 q 600 26 600 -7 l 600 382 l 436 382 l 436 24 q 401 -8 436 -8 l 64 -8 q 28 26 28 -8 l 28 732 m 436 539 l 600 539 l 600 738 q 567 767 600 767 l 471 767 q 436 732 436 767 l 436 539 m 718 1026 q 681 992 718 992 l 346 992 q 314 1026 314 992 l 314 1194 q 346 1231 314 1231 l 681 1231 q 718 1194 718 1231 l 718 1026 z "},"Æ":{"ha":1663,"x_min":28,"x_max":1596,"o":"m 28 26 q 64 -8 28 -8 l 401 -8 q 436 24 436 -8 l 436 382 l 600 382 l 600 26 q 635 -7 600 -7 l 1561 -7 q 1596 26 1596 -7 l 1596 115 q 1561 150 1596 150 l 1058 150 q 1024 182 1024 150 l 1024 350 q 1058 382 1024 382 l 1397 382 q 1431 419 1431 382 l 1431 506 q 1423 528 1431 519 q 1397 538 1415 538 l 1058 538 q 1024 572 1024 538 l 1024 732 q 1058 767 1024 767 l 1560 767 q 1594 803 1594 767 l 1594 888 q 1560 922 1594 922 l 225 922 q 192 888 192 922 l 192 803 q 157 767 192 767 l 65 767 q 39 757 50 767 q 28 732 28 747 l 28 26 m 436 732 q 471 767 436 767 l 567 767 q 600 738 600 767 l 600 539 l 436 539 l 436 732 z "},"Ç":{"ha":1081,"x_min":35,"x_max":1014,"o":"m 285 -153 l 286 -153 l 286 -282 q 288 -293 286 -289 l 288 -321 q 325 -357 288 -357 l 658 -357 q 690 -321 690 -357 l 690 -7 l 979 -7 q 1014 26 1014 -7 l 1014 115 q 979 150 1014 150 l 476 150 q 442 182 442 150 l 442 731 q 476 767 442 767 l 979 767 q 1014 801 1014 767 l 1014 890 q 979 922 1014 922 l 233 922 q 197 890 197 922 l 197 803 q 161 767 197 767 l 72 767 q 35 733 35 767 l 35 26 q 72 -7 36 -7 l 443 -7 l 443 -85 q 421 -118 443 -112 l 325 -118 q 306 -122 314 -118 q 285 -153 285 -126 z "},"È":{"ha":1081,"x_min":35,"x_max":1014,"o":"m 35 733 q 69 767 35 767 l 161 767 q 196 803 196 767 l 196 888 q 232 922 196 922 l 978 922 q 1013 888 1013 922 l 1013 803 q 978 767 1013 767 l 476 767 q 442 732 442 767 l 442 572 q 476 538 442 538 l 814 538 q 841 528 833 538 q 849 506 849 519 l 849 419 q 814 382 849 382 l 476 382 q 442 350 442 382 l 442 182 q 476 150 442 150 l 979 150 q 1014 115 1014 150 l 1014 26 q 979 -7 1014 -7 l 72 -7 q 35 26 35 -7 l 35 733 m 304 1176 l 306 1176 l 306 1307 q 307 1318 306 1314 l 307 1346 q 344 1381 307 1381 l 679 1381 q 711 1346 711 1381 l 711 1026 q 702 999 711 1011 q 675 988 693 988 l 500 988 q 463 1022 463 988 l 463 1110 q 440 1143 463 1138 l 344 1143 q 326 1146 338 1143 q 304 1176 304 1151 z "},"É":{"ha":1081,"x_min":35,"x_max":1014,"o":"m 35 733 l 35 26 q 72 -7 35 -7 l 979 -7 q 1014 26 1014 -7 l 1014 115 q 979 150 1014 150 l 476 150 q 442 182 442 150 l 442 350 q 476 382 442 382 l 814 382 q 849 419 849 382 l 849 506 q 841 528 849 519 q 814 538 833 538 l 476 538 q 442 572 442 538 l 442 732 q 476 767 442 767 l 978 767 q 1013 803 1013 767 l 1013 888 q 978 922 1013 922 l 232 922 q 196 888 196 922 l 196 803 q 161 767 196 767 l 69 767 q 35 733 35 767 m 743 1176 l 742 1176 l 742 1307 q 740 1318 742 1314 l 740 1346 q 703 1381 740 1381 l 368 1381 q 336 1346 336 1381 l 336 1026 q 345 999 336 1011 q 372 988 354 988 l 547 988 q 585 1022 585 988 l 585 1110 q 607 1143 585 1138 l 703 1143 q 721 1146 710 1143 q 743 1176 743 1151 z "},"Ê":{"ha":1081,"x_min":35,"x_max":1014,"o":"m 35 733 l 35 26 q 72 -7 35 -7 l 979 -7 q 1014 26 1014 -7 l 1014 115 q 979 150 1014 150 l 476 150 q 442 182 442 150 l 442 350 q 476 382 442 382 l 814 382 q 849 419 849 382 l 849 506 q 841 528 849 519 q 814 538 833 538 l 476 538 q 442 572 442 538 l 442 732 q 476 767 442 767 l 978 767 q 1013 803 1013 767 l 1013 888 q 978 922 1013 922 l 232 922 q 196 888 196 922 l 196 803 q 161 767 196 767 l 69 767 q 35 733 35 767 m 615 1147 q 638 1114 638 1142 l 638 1026 q 675 992 638 992 l 850 992 q 877 1003 868 992 q 886 1031 886 1015 l 886 1350 q 854 1385 886 1385 l 200 1385 q 168 1350 168 1385 l 168 1031 q 177 1003 168 1015 q 204 992 186 992 l 379 992 q 417 1026 417 992 l 417 1114 q 439 1147 417 1142 l 615 1147 z "},"Ë":{"ha":1081,"x_min":35,"x_max":1014,"o":"m 35 733 q 69 767 35 767 l 161 767 q 196 803 196 767 l 196 888 q 232 922 196 922 l 978 922 q 1013 888 1013 922 l 1013 803 q 978 767 1013 767 l 476 767 q 442 732 442 767 l 442 572 q 476 538 442 538 l 814 538 q 841 528 833 538 q 849 506 849 519 l 849 419 q 814 382 849 382 l 476 382 q 442 350 442 382 l 442 182 q 476 150 442 150 l 979 150 q 1014 115 1014 150 l 1014 26 q 979 -7 1014 -7 l 72 -7 q 35 26 35 -7 l 35 733 m 475 1026 q 438 992 475 992 l 103 992 q 71 1026 71 992 l 71 1194 q 103 1231 71 1231 l 438 1231 q 475 1194 475 1231 l 475 1026 m 971 1026 q 933 992 971 992 l 599 992 q 567 1026 567 992 l 567 1194 q 599 1231 567 1231 l 933 1231 q 971 1194 971 1231 l 971 1026 z "},"Ì":{"ha":1078,"x_min":33,"x_max":1011,"o":"m 33 115 q 68 150 33 150 l 283 150 q 318 182 318 150 l 318 578 q 354 611 318 611 l 446 611 q 481 649 481 611 l 481 733 q 446 767 481 767 l 68 767 q 33 803 33 767 l 33 890 q 68 922 33 922 l 976 922 q 1011 890 1011 922 l 1011 803 q 976 767 1011 767 l 761 767 q 724 733 724 767 l 724 182 q 761 150 724 150 l 976 150 q 1011 115 1011 150 l 1011 26 q 976 -7 1011 -7 l 68 -7 q 33 26 33 -7 l 33 115 m 304 1176 l 306 1176 l 306 1307 q 307 1318 306 1314 l 307 1346 q 344 1381 307 1381 l 679 1381 q 711 1346 711 1381 l 711 1026 q 702 999 711 1011 q 675 988 693 988 l 500 988 q 463 1022 463 988 l 463 1110 q 440 1143 463 1138 l 344 1143 q 326 1146 338 1143 q 304 1176 304 1151 z "},"Í":{"ha":1078,"x_min":33,"x_max":1011,"o":"m 33 115 l 33 26 q 68 -7 33 -7 l 976 -7 q 1011 26 1011 -7 l 1011 115 q 976 150 1011 150 l 761 150 q 724 182 724 150 l 724 733 q 761 767 724 767 l 976 767 q 1011 803 1011 767 l 1011 890 q 976 922 1011 922 l 68 922 q 33 890 33 922 l 33 803 q 68 767 33 767 l 446 767 q 481 733 481 767 l 481 649 q 446 611 481 611 l 354 611 q 318 578 318 611 l 318 182 q 283 150 318 150 l 68 150 q 33 115 33 150 m 743 1176 l 742 1176 l 742 1307 q 740 1318 742 1314 l 740 1346 q 703 1381 740 1381 l 368 1381 q 336 1346 336 1381 l 336 1026 q 345 999 336 1011 q 372 988 354 988 l 547 988 q 585 1022 585 988 l 585 1110 q 607 1143 585 1138 l 703 1143 q 721 1146 710 1143 q 743 1176 743 1151 z "},"Î":{"ha":1078,"x_min":33,"x_max":1011,"o":"m 33 115 l 33 26 q 68 -7 33 -7 l 976 -7 q 1011 26 1011 -7 l 1011 115 q 976 150 1011 150 l 761 150 q 724 182 724 150 l 724 733 q 761 767 724 767 l 976 767 q 1011 803 1011 767 l 1011 890 q 976 922 1011 922 l 68 922 q 33 890 33 922 l 33 803 q 68 767 33 767 l 446 767 q 481 733 481 767 l 481 649 q 446 611 481 611 l 354 611 q 318 578 318 611 l 318 182 q 283 150 318 150 l 68 150 q 33 115 33 150 m 615 1147 q 638 1114 638 1142 l 638 1026 q 675 992 638 992 l 850 992 q 877 1003 868 992 q 886 1031 886 1015 l 886 1350 q 854 1385 886 1385 l 200 1385 q 168 1350 168 1385 l 168 1031 q 177 1003 168 1015 q 204 992 186 992 l 379 992 q 417 1026 417 992 l 417 1114 q 439 1147 417 1142 l 615 1147 z "},"Ï":{"ha":1078,"x_min":33,"x_max":1011,"o":"m 33 115 q 68 150 33 150 l 283 150 q 318 182 318 150 l 318 578 q 354 611 318 611 l 446 611 q 481 649 481 611 l 481 733 q 446 767 481 767 l 68 767 q 33 803 33 767 l 33 890 q 68 922 33 922 l 976 922 q 1011 890 1011 922 l 1011 803 q 976 767 1011 767 l 761 767 q 724 733 724 767 l 724 182 q 761 150 724 150 l 976 150 q 1011 115 1011 150 l 1011 26 q 976 -7 1011 -7 l 68 -7 q 33 26 33 -7 l 33 115 m 475 1026 q 438 992 475 992 l 103 992 q 71 1026 71 992 l 71 1194 q 103 1231 71 1231 l 438 1231 q 475 1194 475 1231 l 475 1026 m 971 1026 q 933 992 971 992 l 599 992 q 567 1026 567 992 l 567 1194 q 599 1231 567 1231 l 933 1231 q 971 1194 971 1231 l 971 1026 z "},"Ð":{"ha":1157,"x_min":33,"x_max":1090,"o":"m 71 376 q 33 414 33 376 l 33 586 q 41 609 33 600 q 67 618 49 618 l 113 618 l 113 886 q 150 922 115 922 l 893 922 q 931 886 931 922 l 931 803 q 964 767 931 767 l 1056 767 q 1090 732 1090 767 l 1090 26 q 1056 -7 1090 -7 l 147 -7 q 113 26 113 -7 l 113 376 l 71 376 m 519 732 l 519 618 l 565 618 q 592 608 585 618 q 600 585 600 599 l 600 413 q 565 376 600 376 l 519 376 l 519 182 q 554 150 519 150 l 649 150 q 686 182 686 150 l 686 732 q 649 767 686 767 l 554 767 q 519 732 519 767 z "},"Ñ":{"ha":1076,"x_min":29,"x_max":1010,"o":"m 1010 732 q 999 757 1010 747 q 972 767 988 767 l 881 767 q 846 803 846 767 l 846 888 q 811 922 846 922 l 65 922 q 29 888 29 922 l 29 26 q 67 -7 29 -7 l 401 -7 q 438 26 438 -7 l 438 738 q 471 767 438 767 l 567 767 q 601 732 601 767 l 601 24 q 635 -8 601 -8 l 972 -8 q 1010 26 1010 -8 l 1010 732 m 754 1035 q 767 1032 763 1032 q 784 1038 776 1032 q 792 1056 792 1044 l 792 1232 q 757 1275 789 1265 q 667 1292 711 1292 q 589 1283 628 1292 q 512 1263 550 1274 q 434 1244 474 1253 q 356 1235 394 1235 q 310 1238 332 1235 q 264 1251 288 1242 l 251 1254 q 238 1242 240 1247 q 236 1231 236 1238 l 236 1058 q 243 1028 238 1043 q 264 1010 249 1014 q 310 995 288 999 q 356 992 332 992 l 665 1051 q 709 1048 688 1051 q 754 1035 731 1044 z "},"Ò":{"ha":1078,"x_min":29,"x_max":1011,"o":"m 475 767 q 438 732 438 767 l 438 153 l 571 153 q 601 183 601 153 l 601 738 q 568 767 601 767 l 475 767 m 1011 176 q 999 157 1011 164 q 972 150 988 150 l 881 150 q 846 115 846 150 l 846 28 q 811 -7 846 -7 l 60 -7 q 39 3 44 -7 q 32 13 35 6 q 29 28 29 19 l 29 732 q 42 757 31 747 q 67 767 54 767 l 158 767 q 193 803 193 767 l 193 888 q 229 922 193 922 l 978 922 q 1000 914 996 922 q 1011 888 1011 907 l 1011 176 m 304 1176 l 306 1176 l 306 1307 q 307 1318 306 1314 l 307 1346 q 344 1381 307 1381 l 679 1381 q 711 1346 711 1381 l 711 1026 q 702 999 711 1011 q 675 988 693 988 l 500 988 q 463 1022 463 988 l 463 1110 q 440 1143 463 1138 l 344 1143 q 326 1146 338 1143 q 304 1176 304 1151 z "},"Ó":{"ha":1076,"x_min":29,"x_max":1010,"o":"m 1010 183 l 1010 893 q 1000 914 1010 907 q 978 922 996 922 l 229 922 q 193 888 193 922 l 193 803 q 158 767 193 767 l 67 767 q 42 757 54 767 q 29 732 31 747 l 29 28 q 32 13 29 19 q 39 3 35 6 q 60 -7 44 -7 l 811 -7 q 846 28 846 -7 l 846 115 q 881 150 846 150 l 972 150 q 999 159 988 150 q 1010 183 1010 168 m 568 767 q 601 738 601 767 l 601 183 q 571 153 601 153 l 438 153 l 438 732 q 475 767 438 767 l 568 767 m 743 1176 l 742 1176 l 742 1307 q 740 1318 742 1314 l 740 1346 q 703 1381 740 1381 l 368 1381 q 336 1346 336 1381 l 336 1026 q 345 999 336 1011 q 372 988 354 988 l 547 988 q 585 1022 585 988 l 585 1110 q 607 1143 585 1138 l 703 1143 q 721 1146 710 1143 q 743 1176 743 1151 z "},"Ô":{"ha":1076,"x_min":29,"x_max":1010,"o":"m 1010 183 l 1010 893 q 1000 914 1010 907 q 978 922 996 922 l 229 922 q 193 888 193 922 l 193 803 q 158 767 193 767 l 67 767 q 42 757 54 767 q 29 732 31 747 l 29 28 q 32 13 29 19 q 39 3 35 6 q 60 -7 44 -7 l 811 -7 q 846 28 846 -7 l 846 115 q 881 150 846 150 l 972 150 q 999 159 988 150 q 1010 183 1010 168 m 568 767 q 601 738 601 767 l 601 183 q 571 153 601 153 l 438 153 l 438 732 q 475 767 438 767 l 568 767 m 615 1147 q 638 1114 638 1142 l 638 1026 q 675 992 638 992 l 850 992 q 877 1003 868 992 q 886 1031 886 1015 l 886 1350 q 854 1385 886 1385 l 200 1385 q 168 1350 168 1385 l 168 1031 q 177 1003 168 1015 q 204 992 186 992 l 379 992 q 417 1026 417 992 l 417 1114 q 439 1147 417 1142 l 615 1147 z "},"Õ":{"ha":1078,"x_min":29,"x_max":1011,"o":"m 1011 176 l 1011 888 q 1000 914 1011 907 q 978 922 996 922 l 229 922 q 193 888 193 922 l 193 803 q 158 767 193 767 l 67 767 q 42 757 54 767 q 29 732 31 747 l 29 28 q 32 13 29 19 q 39 3 35 6 q 60 -7 44 -7 l 811 -7 q 846 28 846 -7 l 846 115 q 881 150 846 150 l 972 150 q 999 157 988 150 q 1011 176 1011 164 m 568 767 q 601 738 601 767 l 601 183 q 571 153 601 153 l 438 153 l 438 732 q 475 767 438 767 l 568 767 m 776 1033 q 789 1031 785 1031 q 806 1037 799 1031 q 814 1054 814 1043 l 814 1231 q 779 1274 811 1264 q 689 1290 733 1290 q 611 1281 650 1290 q 534 1262 572 1272 q 456 1242 496 1251 q 378 1233 417 1233 q 332 1237 354 1233 q 286 1250 310 1240 l 274 1253 q 260 1241 263 1246 q 258 1229 258 1236 l 258 1057 q 265 1027 260 1042 q 286 1008 271 1013 q 332 994 310 997 q 378 990 354 990 l 688 1050 q 731 1047 710 1050 q 776 1033 753 1043 z "},"Ö":{"ha":1078,"x_min":29,"x_max":1011,"o":"m 475 767 q 438 732 438 767 l 438 153 l 571 153 q 601 183 601 153 l 601 738 q 568 767 601 767 l 475 767 m 1011 176 q 999 157 1011 164 q 972 150 988 150 l 881 150 q 846 115 846 150 l 846 28 q 811 -7 846 -7 l 60 -7 q 39 3 44 -7 q 32 13 35 6 q 29 28 29 19 l 29 732 q 42 757 31 747 q 67 767 54 767 l 158 767 q 193 803 193 767 l 193 888 q 229 922 193 922 l 978 922 q 1000 914 996 922 q 1011 888 1011 907 l 1011 176 m 475 1026 q 438 992 475 992 l 103 992 q 71 1026 71 992 l 71 1194 q 103 1231 71 1231 l 438 1231 q 475 1194 475 1231 l 475 1026 m 971 1026 q 933 992 971 992 l 599 992 q 567 1026 567 992 l 567 1194 q 599 1231 567 1231 l 933 1231 q 971 1194 971 1231 l 971 1026 z "},"×":{"ha":831,"x_min":28,"x_max":764,"o":"m 28 739 l 28 672 q 54 644 28 644 l 124 644 q 149 624 149 644 l 149 439 q 124 413 149 413 l 57 413 q 34 406 40 413 q 28 389 28 400 l 28 89 q 54 64 28 64 l 124 64 q 150 89 150 64 l 150 272 q 176 297 150 297 l 246 297 q 272 272 272 297 l 272 89 q 301 64 272 64 l 736 64 q 764 89 764 64 l 764 247 q 738 274 764 274 l 547 274 q 517 297 517 274 l 517 389 q 546 414 517 414 l 736 414 q 761 436 761 414 l 761 739 q 736 763 761 763 l 571 763 q 547 740 547 763 l 547 556 q 517 531 547 531 l 333 531 q 306 556 306 531 l 306 739 q 281 763 306 763 l 54 763 q 28 739 28 763 z "},"Ø":{"ha":1078,"x_min":29,"x_max":1011,"o":"m 1011 176 l 1011 888 q 1000 914 1011 907 q 978 922 996 922 l 229 922 q 193 888 193 922 l 193 803 q 158 767 193 767 l 67 767 q 42 757 54 767 q 29 732 31 747 l 29 28 q 32 13 29 19 q 39 3 35 6 q 60 -7 44 -7 l 811 -7 q 846 28 846 -7 l 846 115 q 881 150 846 150 l 972 150 q 999 157 988 150 q 1011 176 1011 164 m 438 732 q 475 767 438 767 l 538 767 l 438 582 l 438 732 m 571 153 l 500 153 q 553 246 529 201 q 601 331 578 290 l 601 183 q 571 153 601 153 z "},"Ù":{"ha":1075,"x_min":28,"x_max":1008,"o":"m 28 181 l 28 886 q 64 922 28 922 l 401 922 q 436 893 436 922 l 436 181 q 471 147 436 147 l 567 147 q 593 154 586 147 q 600 178 600 161 l 600 886 q 635 921 600 921 l 972 921 q 1008 886 1008 921 l 1008 26 q 972 -10 1008 -10 l 225 -10 q 192 26 192 -10 l 192 114 q 157 146 192 146 l 65 146 q 39 157 50 146 q 28 181 28 168 m 304 1176 l 306 1176 l 306 1307 q 307 1318 306 1314 l 307 1346 q 344 1381 307 1381 l 679 1381 q 711 1346 711 1381 l 711 1026 q 702 999 711 1011 q 675 988 693 988 l 500 988 q 463 1022 463 988 l 463 1110 q 440 1143 463 1138 l 344 1143 q 326 1146 338 1143 q 304 1176 304 1151 z "},"Ú":{"ha":1075,"x_min":28,"x_max":1008,"o":"m 28 181 q 39 157 28 168 q 65 146 50 146 l 157 146 q 192 114 192 146 l 192 26 q 225 -10 192 -10 l 972 -10 q 1008 26 1008 -10 l 1008 886 q 972 921 1008 921 l 635 921 q 600 886 600 921 l 600 178 q 593 154 600 161 q 567 147 586 147 l 471 147 q 436 181 436 147 l 436 893 q 401 922 436 922 l 64 922 q 28 886 28 922 l 28 181 m 743 1176 l 742 1176 l 742 1307 q 740 1318 742 1314 l 740 1346 q 703 1381 740 1381 l 368 1381 q 336 1346 336 1381 l 336 1026 q 345 999 336 1011 q 372 988 354 988 l 547 988 q 585 1022 585 988 l 585 1110 q 607 1143 585 1138 l 703 1143 q 721 1146 710 1143 q 743 1176 743 1151 z "},"Û":{"ha":1075,"x_min":28,"x_max":1008,"o":"m 28 181 q 39 157 28 168 q 65 146 50 146 l 157 146 q 192 114 192 146 l 192 26 q 225 -10 192 -10 l 972 -10 q 1008 26 1008 -10 l 1008 886 q 972 921 1008 921 l 635 921 q 600 886 600 921 l 600 178 q 593 154 600 161 q 567 147 586 147 l 471 147 q 436 181 436 147 l 436 893 q 401 922 436 922 l 64 922 q 28 886 28 922 l 28 181 m 615 1147 q 638 1114 638 1142 l 638 1026 q 675 992 638 992 l 850 992 q 877 1003 868 992 q 886 1031 886 1015 l 886 1350 q 854 1385 886 1385 l 200 1385 q 168 1350 168 1385 l 168 1031 q 177 1003 168 1015 q 204 992 186 992 l 379 992 q 417 1026 417 992 l 417 1114 q 439 1147 417 1142 l 615 1147 z "},"Ü":{"ha":1075,"x_min":28,"x_max":1008,"o":"m 28 181 l 28 886 q 64 922 28 922 l 401 922 q 436 893 436 922 l 436 181 q 471 147 436 147 l 567 147 q 593 154 586 147 q 600 178 600 161 l 600 886 q 635 921 600 921 l 972 921 q 1008 886 1008 921 l 1008 26 q 972 -10 1008 -10 l 225 -10 q 192 26 192 -10 l 192 114 q 157 146 192 146 l 65 146 q 39 157 50 146 q 28 181 28 168 m 475 1026 q 438 992 475 992 l 103 992 q 71 1026 71 992 l 71 1194 q 103 1231 71 1231 l 438 1231 q 475 1194 475 1231 l 475 1026 m 971 1026 q 933 992 971 992 l 599 992 q 567 1026 567 992 l 567 1194 q 599 1231 567 1231 l 933 1231 q 971 1194 971 1231 l 971 1026 z "},"Ý":{"ha":1078,"x_min":26,"x_max":1011,"o":"m 600 893 l 604 893 l 604 492 q 569 458 604 458 l 476 458 q 440 492 440 458 l 440 893 q 425 913 438 904 q 400 922 413 922 l 60 922 q 26 886 26 922 l 31 886 l 31 333 q 67 300 31 300 l 569 300 q 604 267 604 300 l 604 179 q 569 146 604 146 l 231 146 q 196 114 196 146 l 196 25 q 231 -10 196 -10 l 978 -10 q 1011 25 1011 -10 l 1011 731 q 976 767 1011 767 l 885 767 q 849 801 849 767 l 849 888 q 840 914 849 907 q 814 924 831 924 l 635 924 q 600 893 600 924 m 743 1176 l 742 1176 l 742 1307 q 740 1318 742 1314 l 740 1346 q 703 1381 740 1381 l 368 1381 q 336 1346 336 1381 l 336 1026 q 345 999 336 1011 q 372 988 354 988 l 547 988 q 585 1022 585 988 l 585 1110 q 607 1143 585 1138 l 703 1143 q 721 1146 710 1143 q 743 1176 743 1151 z "},"Þ":{"ha":1083,"x_min":31,"x_max":1017,"o":"m 32 885 q 41 913 32 901 q 69 924 50 924 l 407 924 q 442 889 442 924 l 442 760 q 446 756 446 756 q 443 753 446 754 q 482 729 451 729 l 981 729 q 1017 696 1017 729 l 1017 142 q 982 107 1017 107 l 438 107 l 438 21 q 403 -10 438 -10 l 65 -10 q 31 24 31 -10 l 32 885 m 574 571 l 482 571 q 444 538 444 571 l 444 299 q 482 263 444 263 l 574 263 q 611 299 611 263 l 611 538 q 574 571 611 571 z "},"ß":{"ha":1079,"x_min":33,"x_max":1013,"o":"m 440 731 q 478 767 440 767 l 696 767 l 696 611 l 539 611 l 539 456 l 571 454 q 607 421 607 454 l 607 -11 l 978 -11 q 1013 25 1013 -10 l 1013 576 q 976 611 1013 611 l 851 611 l 851 885 q 817 921 851 921 l 68 921 q 33 886 33 921 l 33 179 q 71 146 33 146 l 161 146 q 194 111 194 146 l 194 25 q 231 -10 194 -10 l 440 -10 l 440 731 z "},"à":{"ha":1081,"x_min":35,"x_max":1014,"o":"m 479 458 q 442 425 442 458 l 442 182 q 479 150 442 150 l 571 150 q 608 182 608 150 l 608 425 q 571 458 608 458 l 479 458 m 608 733 q 571 767 608 767 l 233 767 q 197 803 197 767 l 197 890 q 233 922 197 922 l 979 922 q 1014 890 1014 922 l 1014 182 q 978 150 1014 150 l 885 150 q 853 114 853 150 l 853 26 q 815 -8 853 -8 l 69 -8 q 35 26 35 -8 l 35 581 q 72 614 35 614 l 571 614 q 608 647 608 614 l 608 733 m 304 1176 l 306 1176 l 306 1307 q 307 1318 306 1314 l 307 1346 q 344 1381 307 1381 l 679 1381 q 711 1346 711 1381 l 711 1026 q 702 999 711 1011 q 675 988 693 988 l 500 988 q 463 1022 463 988 l 463 1110 q 440 1143 463 1138 l 344 1143 q 326 1146 338 1143 q 304 1176 304 1151 z "},"á":{"ha":1081,"x_min":35,"x_max":1014,"o":"m 608 733 l 608 647 q 571 614 608 614 l 72 614 q 35 581 35 614 l 35 26 q 69 -8 35 -8 l 815 -8 q 853 26 853 -8 l 853 114 q 885 150 853 150 l 978 150 q 1014 182 1014 150 l 1014 890 q 979 922 1014 922 l 233 922 q 197 890 197 922 l 197 803 q 233 767 197 767 l 571 767 q 608 733 608 767 m 479 458 l 571 458 q 608 425 608 458 l 608 182 q 571 150 608 150 l 479 150 q 442 182 442 150 l 442 425 q 479 458 442 458 m 743 1176 l 742 1176 l 742 1307 q 740 1318 742 1314 l 740 1346 q 703 1381 740 1381 l 368 1381 q 336 1346 336 1381 l 336 1026 q 345 999 336 1011 q 372 988 354 988 l 547 988 q 585 1022 585 988 l 585 1110 q 607 1143 585 1138 l 703 1143 q 721 1146 710 1143 q 743 1176 743 1151 z "},"â":{"ha":1081,"x_min":35,"x_max":1014,"o":"m 608 733 l 608 647 q 571 614 608 614 l 72 614 q 35 581 35 614 l 35 26 q 69 -8 35 -8 l 815 -8 q 853 26 853 -8 l 853 114 q 885 150 853 150 l 978 150 q 1014 182 1014 150 l 1014 890 q 979 922 1014 922 l 233 922 q 197 890 197 922 l 197 803 q 233 767 197 767 l 571 767 q 608 733 608 767 m 479 458 l 571 458 q 608 425 608 458 l 608 182 q 571 150 608 150 l 479 150 q 442 182 442 150 l 442 425 q 479 458 442 458 m 615 1147 q 638 1114 638 1142 l 638 1026 q 675 992 638 992 l 850 992 q 877 1003 868 992 q 886 1031 886 1015 l 886 1350 q 854 1385 886 1385 l 200 1385 q 168 1350 168 1385 l 168 1031 q 177 1003 168 1015 q 204 992 186 992 l 379 992 q 417 1026 417 992 l 417 1114 q 439 1147 417 1142 l 615 1147 z "},"ã":{"ha":1081,"x_min":35,"x_max":1014,"o":"m 608 733 l 608 647 q 571 614 608 614 l 72 614 q 35 581 35 614 l 35 26 q 69 -8 35 -8 l 815 -8 q 853 26 853 -8 l 853 114 q 885 150 853 150 l 978 150 q 1014 182 1014 150 l 1014 890 q 979 922 1014 922 l 233 922 q 197 890 197 922 l 197 803 q 233 767 197 767 l 571 767 q 608 733 608 767 m 479 458 l 571 458 q 608 425 608 458 l 608 182 q 571 150 608 150 l 479 150 q 442 182 442 150 l 442 425 q 479 458 442 458 m 767 1035 q 779 1032 775 1032 q 797 1038 789 1032 q 804 1056 804 1044 l 804 1232 q 769 1275 801 1265 q 679 1292 724 1292 q 601 1283 640 1292 q 524 1263 563 1274 q 447 1244 486 1253 q 368 1235 407 1235 q 322 1238 344 1235 q 276 1251 300 1242 l 264 1254 q 251 1242 253 1247 q 249 1231 249 1238 l 249 1058 q 256 1028 250 1043 q 276 1010 261 1014 q 322 995 300 999 q 368 992 344 992 l 678 1051 q 722 1048 700 1051 q 767 1035 743 1044 z "},"ä":{"ha":1081,"x_min":35,"x_max":1014,"o":"m 479 458 q 442 425 442 458 l 442 182 q 479 150 442 150 l 571 150 q 608 182 608 150 l 608 425 q 571 458 608 458 l 479 458 m 608 733 q 571 767 608 767 l 233 767 q 197 803 197 767 l 197 890 q 233 922 197 922 l 979 922 q 1014 890 1014 922 l 1014 182 q 978 150 1014 150 l 885 150 q 853 114 853 150 l 853 26 q 815 -8 853 -8 l 69 -8 q 35 26 35 -8 l 35 581 q 72 614 35 614 l 571 614 q 608 647 608 614 l 608 733 m 475 1026 q 438 992 475 992 l 103 992 q 71 1026 71 992 l 71 1194 q 103 1231 71 1231 l 438 1231 q 475 1194 475 1231 l 475 1026 m 971 1026 q 933 992 971 992 l 599 992 q 567 1026 567 992 l 567 1194 q 599 1231 567 1231 l 933 1231 q 971 1194 971 1231 l 971 1026 z "},"å":{"ha":1081,"x_min":35,"x_max":1014,"o":"m 479 458 q 442 425 442 458 l 442 182 q 479 150 442 150 l 571 150 q 608 182 608 150 l 608 425 q 571 458 608 458 l 479 458 m 608 733 q 571 767 608 767 l 233 767 q 197 803 197 767 l 197 890 q 233 922 197 922 l 979 922 q 1014 890 1014 922 l 1014 182 q 978 150 1014 150 l 885 150 q 853 114 853 150 l 853 26 q 815 -8 853 -8 l 69 -8 q 35 26 35 -8 l 35 581 q 72 614 35 614 l 571 614 q 608 647 608 614 l 608 733 m 718 1026 q 681 992 718 992 l 346 992 q 314 1026 314 992 l 314 1194 q 346 1231 314 1231 l 681 1231 q 718 1194 718 1231 l 718 1026 z "},"æ":{"ha":1661,"x_min":35,"x_max":1594,"o":"m 1022 179 l 1022 267 q 1060 300 1022 300 l 1558 300 q 1594 333 1594 300 l 1594 888 q 1560 922 1594 922 l 233 922 q 197 890 197 922 l 197 803 q 233 767 197 767 l 571 767 q 608 733 608 767 l 608 647 q 571 614 608 614 l 72 614 q 35 581 35 614 l 35 26 q 69 -8 35 -8 l 1397 -8 q 1432 25 1432 -10 l 1432 114 q 1397 146 1432 146 l 1060 146 q 1022 179 1022 146 m 479 458 l 571 458 q 608 425 608 458 l 608 182 q 571 150 608 150 l 479 150 q 442 182 442 150 l 442 425 q 479 458 442 458 m 1153 458 l 1060 458 q 1022 492 1022 458 l 1022 731 q 1060 767 1022 767 l 1153 767 q 1189 731 1189 767 l 1189 492 q 1153 458 1189 458 z "},"ç":{"ha":1081,"x_min":35,"x_max":1014,"o":"m 285 -153 l 286 -153 l 286 -282 q 288 -293 286 -289 l 288 -321 q 325 -357 288 -357 l 658 -357 q 690 -321 690 -357 l 690 -7 l 979 -7 q 1014 26 1014 -7 l 1014 115 q 979 150 1014 150 l 476 150 q 442 182 442 150 l 442 731 q 476 767 442 767 l 979 767 q 1014 801 1014 767 l 1014 890 q 979 922 1014 922 l 233 922 q 197 890 197 922 l 197 803 q 161 767 197 767 l 72 767 q 35 733 35 767 l 35 26 q 72 -7 36 -7 l 443 -7 l 443 -85 q 421 -118 443 -112 l 325 -118 q 306 -122 314 -118 q 285 -153 285 -126 z "},"è":{"ha":1081,"x_min":35,"x_max":1014,"o":"m 571 458 q 608 492 608 458 l 608 731 q 571 767 608 767 l 479 767 q 442 731 442 767 l 442 492 q 479 458 442 458 l 571 458 m 442 179 q 479 146 442 146 l 815 146 q 851 114 851 146 l 851 25 q 815 -10 851 -10 l 69 -10 q 35 25 35 -10 l 35 731 q 72 767 35 767 l 161 767 q 196 801 196 767 l 196 888 q 232 922 196 922 l 979 922 q 1014 888 1014 922 l 1014 333 q 978 300 1014 300 l 479 300 q 442 267 442 300 l 442 179 m 304 1176 l 306 1176 l 306 1307 q 307 1318 306 1314 l 307 1346 q 344 1381 307 1381 l 679 1381 q 711 1346 711 1381 l 711 1026 q 702 999 711 1011 q 675 988 693 988 l 500 988 q 463 1022 463 988 l 463 1110 q 440 1143 463 1138 l 344 1143 q 326 1146 338 1143 q 304 1176 304 1151 z "},"é":{"ha":1081,"x_min":35,"x_max":1014,"o":"m 442 179 l 442 267 q 479 300 442 300 l 978 300 q 1014 333 1014 300 l 1014 888 q 979 922 1014 922 l 232 922 q 196 888 196 922 l 196 801 q 161 767 196 767 l 72 767 q 35 731 35 767 l 35 25 q 69 -10 35 -10 l 815 -10 q 851 25 851 -10 l 851 114 q 815 146 851 146 l 479 146 q 442 179 442 146 m 571 458 l 479 458 q 442 492 442 458 l 442 731 q 479 767 442 767 l 571 767 q 608 731 608 767 l 608 492 q 571 458 608 458 m 743 1176 l 742 1176 l 742 1307 q 740 1318 742 1314 l 740 1346 q 703 1381 740 1381 l 368 1381 q 336 1346 336 1381 l 336 1026 q 345 999 336 1011 q 372 988 354 988 l 547 988 q 585 1022 585 988 l 585 1110 q 607 1143 585 1138 l 703 1143 q 721 1146 710 1143 q 743 1176 743 1151 z "},"ê":{"ha":1081,"x_min":35,"x_max":1014,"o":"m 442 179 l 442 267 q 479 300 442 300 l 978 300 q 1014 333 1014 300 l 1014 888 q 979 922 1014 922 l 232 922 q 196 888 196 922 l 196 801 q 161 767 196 767 l 72 767 q 35 731 35 767 l 35 25 q 69 -10 35 -10 l 815 -10 q 851 25 851 -10 l 851 114 q 815 146 851 146 l 479 146 q 442 179 442 146 m 571 458 l 479 458 q 442 492 442 458 l 442 731 q 479 767 442 767 l 571 767 q 608 731 608 767 l 608 492 q 571 458 608 458 m 615 1147 q 638 1114 638 1142 l 638 1026 q 675 992 638 992 l 850 992 q 877 1003 868 992 q 886 1031 886 1015 l 886 1350 q 854 1385 886 1385 l 200 1385 q 168 1350 168 1385 l 168 1031 q 177 1003 168 1015 q 204 992 186 992 l 379 992 q 417 1026 417 992 l 417 1114 q 439 1147 417 1142 l 615 1147 z "},"ë":{"ha":1081,"x_min":35,"x_max":1014,"o":"m 571 458 q 608 492 608 458 l 608 731 q 571 767 608 767 l 479 767 q 442 731 442 767 l 442 492 q 479 458 442 458 l 571 458 m 442 179 q 479 146 442 146 l 815 146 q 851 114 851 146 l 851 25 q 815 -10 851 -10 l 69 -10 q 35 25 35 -10 l 35 731 q 72 767 35 767 l 161 767 q 196 801 196 767 l 196 888 q 232 922 196 922 l 979 922 q 1014 888 1014 922 l 1014 333 q 978 300 1014 300 l 479 300 q 442 267 442 300 l 442 179 m 475 1026 q 438 992 475 992 l 103 992 q 71 1026 71 992 l 71 1194 q 103 1231 71 1231 l 438 1231 q 475 1194 475 1231 l 475 1026 m 971 1026 q 933 992 971 992 l 599 992 q 567 1026 567 992 l 567 1194 q 599 1231 567 1231 l 933 1231 q 971 1194 971 1231 l 971 1026 z "},"ì":{"ha":507,"x_min":29,"x_max":440,"o":"m 440 893 l 440 22 q 406 -7 440 -7 l 69 -7 q 35 26 35 -7 l 35 736 q 69 767 35 767 l 157 767 q 193 804 193 767 l 193 893 q 228 924 193 924 l 404 924 q 440 893 440 924 m 29 1178 l 31 1178 l 31 1308 q 32 1319 31 1315 l 32 1347 q 69 1382 32 1382 l 404 1382 q 436 1347 436 1382 l 436 1028 q 427 1001 436 1013 q 400 989 418 989 l 225 989 q 188 1024 188 989 l 188 1111 q 165 1144 188 1139 l 69 1144 q 51 1147 63 1144 q 29 1178 29 1153 z "},"í":{"ha":507,"x_min":28,"x_max":440,"o":"m 440 893 q 404 924 440 924 l 228 924 q 193 893 193 924 l 193 804 q 157 767 193 767 l 69 767 q 35 736 35 767 l 35 26 q 69 -7 35 -7 l 406 -7 q 440 22 440 -7 l 440 893 m 435 1178 l 433 1178 l 433 1308 q 432 1319 433 1315 l 432 1347 q 394 1382 432 1382 l 60 1382 q 28 1347 28 1382 l 28 1028 q 37 1001 28 1013 q 64 989 46 989 l 239 989 q 276 1024 276 989 l 276 1111 q 299 1144 276 1139 l 394 1144 q 413 1147 401 1144 q 435 1178 435 1153 z "},"î":{"ha":681,"x_min":-104,"x_max":614,"o":"m 440 893 q 404 924 440 924 l 228 924 q 193 893 193 924 l 193 804 q 157 767 193 767 l 69 767 q 35 736 35 767 l 35 26 q 69 -7 35 -7 l 406 -7 q 440 22 440 -7 l 440 893 m 343 1147 q 365 1114 365 1142 l 365 1026 q 403 992 365 992 l 578 992 q 605 1003 596 992 q 614 1031 614 1015 l 614 1350 q 582 1385 614 1385 l -72 1385 q -104 1350 -104 1385 l -104 1031 q -95 1003 -104 1015 q -68 992 -86 992 l 107 992 q 144 1026 144 992 l 144 1114 q 167 1147 144 1142 l 343 1147 z "},"ï":{"ha":783,"x_min":-183,"x_max":717,"o":"m 440 893 l 440 22 q 406 -7 440 -7 l 69 -7 q 35 26 35 -7 l 35 736 q 69 767 35 767 l 157 767 q 193 804 193 767 l 193 893 q 228 924 193 924 l 404 924 q 440 893 440 924 m 221 1026 q 183 992 221 992 l -151 992 q -183 1026 -183 992 l -183 1194 q -151 1231 -183 1231 l 183 1231 q 221 1194 221 1231 l 221 1026 m 717 1026 q 679 992 717 992 l 344 992 q 313 1026 313 992 l 313 1194 q 344 1231 313 1231 l 679 1231 q 717 1194 717 1231 l 717 1026 z "},"ð":{"ha":1079,"x_min":33,"x_max":1013,"o":"m 606 731 l 606 646 q 568 611 606 611 l 69 611 q 33 576 33 611 l 33 25 q 68 -10 33 -10 l 815 -10 q 851 25 851 -10 l 851 111 q 886 146 851 146 l 975 146 q 1013 179 1013 146 l 1013 886 q 978 921 1013 921 l 232 921 q 196 886 196 921 l 196 801 q 232 767 196 767 l 568 767 q 606 731 606 767 m 476 454 l 568 454 q 606 421 606 454 l 606 179 q 568 146 606 146 l 476 146 q 439 179 439 146 l 439 421 q 476 454 439 454 z "},"ñ":{"ha":1076,"x_min":29,"x_max":1010,"o":"m 1010 732 q 999 757 1010 747 q 972 767 988 767 l 881 767 q 846 803 846 767 l 846 888 q 811 922 846 922 l 65 922 q 29 888 29 922 l 29 26 q 67 -7 29 -7 l 401 -7 q 438 26 438 -7 l 438 738 q 471 767 438 767 l 567 767 q 601 732 601 767 l 601 24 q 635 -8 601 -8 l 972 -8 q 1010 26 1010 -8 l 1010 732 m 772 1040 q 785 1038 781 1038 q 802 1044 794 1038 q 810 1061 810 1050 l 810 1238 q 775 1281 807 1271 q 685 1297 729 1297 q 607 1288 646 1297 q 530 1269 568 1279 q 452 1249 492 1258 q 374 1240 413 1240 q 328 1244 350 1240 q 282 1257 306 1247 l 269 1260 q 256 1248 258 1253 q 254 1236 254 1243 l 254 1064 q 261 1034 256 1049 q 282 1015 267 1019 q 328 1001 306 1004 q 374 997 350 997 l 683 1057 q 727 1053 706 1057 q 772 1040 749 1050 z "},"ò":{"ha":1078,"x_min":29,"x_max":1011,"o":"m 475 767 q 438 732 438 767 l 438 153 l 571 153 q 601 183 601 153 l 601 738 q 568 767 601 767 l 475 767 m 1011 176 q 999 157 1011 164 q 972 150 988 150 l 881 150 q 846 115 846 150 l 846 28 q 811 -7 846 -7 l 60 -7 q 39 3 44 -7 q 32 13 35 6 q 29 28 29 19 l 29 732 q 42 757 31 747 q 67 767 54 767 l 158 767 q 193 803 193 767 l 193 888 q 229 922 193 922 l 978 922 q 1000 914 996 922 q 1011 888 1011 907 l 1011 176 m 304 1176 l 306 1176 l 306 1307 q 307 1318 306 1314 l 307 1346 q 344 1381 307 1381 l 679 1381 q 711 1346 711 1381 l 711 1026 q 702 999 711 1011 q 675 988 693 988 l 500 988 q 463 1022 463 988 l 463 1110 q 440 1143 463 1138 l 344 1143 q 326 1146 338 1143 q 304 1176 304 1151 z "},"ó":{"ha":1076,"x_min":29,"x_max":1010,"o":"m 1010 183 l 1010 893 q 1000 914 1010 907 q 978 922 996 922 l 229 922 q 193 888 193 922 l 193 803 q 158 767 193 767 l 67 767 q 42 757 54 767 q 29 732 31 747 l 29 28 q 32 13 29 19 q 39 3 35 6 q 60 -7 44 -7 l 811 -7 q 846 28 846 -7 l 846 115 q 881 150 846 150 l 972 150 q 999 159 988 150 q 1010 183 1010 168 m 568 767 q 601 738 601 767 l 601 183 q 571 153 601 153 l 438 153 l 438 732 q 475 767 438 767 l 568 767 m 743 1176 l 742 1176 l 742 1307 q 740 1318 742 1314 l 740 1346 q 703 1381 740 1381 l 368 1381 q 336 1346 336 1381 l 336 1026 q 345 999 336 1011 q 372 988 354 988 l 547 988 q 585 1022 585 988 l 585 1110 q 607 1143 585 1138 l 703 1143 q 721 1146 710 1143 q 743 1176 743 1151 z "},"ô":{"ha":1076,"x_min":29,"x_max":1010,"o":"m 1010 183 l 1010 893 q 1000 914 1010 907 q 978 922 996 922 l 229 922 q 193 888 193 922 l 193 803 q 158 767 193 767 l 67 767 q 42 757 54 767 q 29 732 31 747 l 29 28 q 32 13 29 19 q 39 3 35 6 q 60 -7 44 -7 l 811 -7 q 846 28 846 -7 l 846 115 q 881 150 846 150 l 972 150 q 999 159 988 150 q 1010 183 1010 168 m 568 767 q 601 738 601 767 l 601 183 q 571 153 601 153 l 438 153 l 438 732 q 475 767 438 767 l 568 767 m 615 1147 q 638 1114 638 1142 l 638 1026 q 675 992 638 992 l 850 992 q 877 1003 868 992 q 886 1031 886 1015 l 886 1350 q 854 1385 886 1385 l 200 1385 q 168 1350 168 1385 l 168 1031 q 177 1003 168 1015 q 204 992 186 992 l 379 992 q 417 1026 417 992 l 417 1114 q 439 1147 417 1142 l 615 1147 z "},"õ":{"ha":1078,"x_min":29,"x_max":1011,"o":"m 1011 176 l 1011 888 q 1000 914 1011 907 q 978 922 996 922 l 229 922 q 193 888 193 922 l 193 803 q 158 767 193 767 l 67 767 q 42 757 54 767 q 29 732 31 747 l 29 28 q 32 13 29 19 q 39 3 35 6 q 60 -7 44 -7 l 811 -7 q 846 28 846 -7 l 846 115 q 881 150 846 150 l 972 150 q 999 157 988 150 q 1011 176 1011 164 m 568 767 q 601 738 601 767 l 601 183 q 571 153 601 153 l 438 153 l 438 732 q 475 767 438 767 l 568 767 m 776 1033 q 789 1031 785 1031 q 806 1037 799 1031 q 814 1054 814 1043 l 814 1231 q 779 1274 811 1264 q 689 1290 733 1290 q 611 1281 650 1290 q 534 1262 572 1272 q 456 1242 496 1251 q 378 1233 417 1233 q 332 1237 354 1233 q 286 1250 310 1240 l 274 1253 q 260 1241 263 1246 q 258 1229 258 1236 l 258 1057 q 265 1027 260 1042 q 286 1008 271 1013 q 332 994 310 997 q 378 990 354 990 l 688 1050 q 731 1047 710 1050 q 776 1033 753 1043 z "},"ö":{"ha":1078,"x_min":29,"x_max":1011,"o":"m 475 767 q 438 732 438 767 l 438 153 l 571 153 q 601 183 601 153 l 601 738 q 568 767 601 767 l 475 767 m 1011 176 q 999 157 1011 164 q 972 150 988 150 l 881 150 q 846 115 846 150 l 846 28 q 811 -7 846 -7 l 60 -7 q 39 3 44 -7 q 32 13 35 6 q 29 28 29 19 l 29 732 q 42 757 31 747 q 67 767 54 767 l 158 767 q 193 803 193 767 l 193 888 q 229 922 193 922 l 978 922 q 1000 914 996 922 q 1011 888 1011 907 l 1011 176 m 475 1026 q 438 992 475 992 l 103 992 q 71 1026 71 992 l 71 1194 q 103 1231 71 1231 l 438 1231 q 475 1194 475 1231 l 475 1026 m 971 1026 q 933 992 971 992 l 599 992 q 567 1026 567 992 l 567 1194 q 599 1231 567 1231 l 933 1231 q 971 1194 971 1231 l 971 1026 z "},"÷":{"ha":810,"x_min":29,"x_max":743,"o":"m 64 374 q 29 410 29 374 l 29 581 q 37 605 29 596 q 64 614 44 614 l 710 614 q 736 606 729 614 q 743 582 743 597 l 743 411 q 706 374 743 374 l 64 374 m 592 110 q 554 75 592 75 l 219 75 q 188 110 188 75 l 188 278 q 219 314 188 314 l 554 314 q 592 278 592 314 l 592 110 m 592 708 q 554 674 592 674 l 219 674 q 188 708 188 674 l 188 876 q 219 913 188 913 l 554 913 q 592 876 592 913 l 592 708 z "},"ø":{"ha":1076,"x_min":28,"x_max":1010,"o":"m 28 736 l 28 26 q 39 0 28 7 q 61 -8 43 -8 l 810 -8 q 846 26 846 -8 l 846 111 q 881 147 846 147 l 972 147 q 997 157 985 147 q 1010 182 1008 167 l 1010 886 q 1000 911 1010 906 q 979 921 993 921 l 228 921 q 193 886 193 921 l 193 799 q 158 764 193 764 l 67 764 q 40 757 51 764 q 28 736 28 750 m 601 182 q 564 147 601 147 l 501 147 l 601 332 l 601 182 m 468 761 l 539 761 q 485 668 510 713 q 438 583 461 624 l 438 731 q 468 761 438 761 z "},"ù":{"ha":1075,"x_min":28,"x_max":1008,"o":"m 28 181 l 28 886 q 64 922 28 922 l 401 922 q 436 893 436 922 l 436 181 q 471 147 436 147 l 567 147 q 593 154 586 147 q 600 178 600 161 l 600 886 q 635 921 600 921 l 972 921 q 1008 886 1008 921 l 1008 26 q 972 -10 1008 -10 l 225 -10 q 192 26 192 -10 l 192 114 q 157 146 192 146 l 65 146 q 39 157 50 146 q 28 181 28 168 m 304 1176 l 306 1176 l 306 1307 q 307 1318 306 1314 l 307 1346 q 344 1381 307 1381 l 679 1381 q 711 1346 711 1381 l 711 1026 q 702 999 711 1011 q 675 988 693 988 l 500 988 q 463 1022 463 988 l 463 1110 q 440 1143 463 1138 l 344 1143 q 326 1146 338 1143 q 304 1176 304 1151 z "},"ú":{"ha":1075,"x_min":28,"x_max":1008,"o":"m 28 181 q 39 157 28 168 q 65 146 50 146 l 157 146 q 192 114 192 146 l 192 26 q 225 -10 192 -10 l 972 -10 q 1008 26 1008 -10 l 1008 886 q 972 921 1008 921 l 635 921 q 600 886 600 921 l 600 178 q 593 154 600 161 q 567 147 586 147 l 471 147 q 436 181 436 147 l 436 893 q 401 922 436 922 l 64 922 q 28 886 28 922 l 28 181 m 743 1176 l 742 1176 l 742 1307 q 740 1318 742 1314 l 740 1346 q 703 1381 740 1381 l 368 1381 q 336 1346 336 1381 l 336 1026 q 345 999 336 1011 q 372 988 354 988 l 547 988 q 585 1022 585 988 l 585 1110 q 607 1143 585 1138 l 703 1143 q 721 1146 710 1143 q 743 1176 743 1151 z "},"û":{"ha":1075,"x_min":28,"x_max":1008,"o":"m 28 181 q 39 157 28 168 q 65 146 50 146 l 157 146 q 192 114 192 146 l 192 26 q 225 -10 192 -10 l 972 -10 q 1008 26 1008 -10 l 1008 886 q 972 921 1008 921 l 635 921 q 600 886 600 921 l 600 178 q 593 154 600 161 q 567 147 586 147 l 471 147 q 436 181 436 147 l 436 893 q 401 922 436 922 l 64 922 q 28 886 28 922 l 28 181 m 615 1147 q 638 1114 638 1142 l 638 1026 q 675 992 638 992 l 850 992 q 877 1003 868 992 q 886 1031 886 1015 l 886 1350 q 854 1385 886 1385 l 200 1385 q 168 1350 168 1385 l 168 1031 q 177 1003 168 1015 q 204 992 186 992 l 379 992 q 417 1026 417 992 l 417 1114 q 439 1147 417 1142 l 615 1147 z "},"ü":{"ha":1075,"x_min":28,"x_max":1008,"o":"m 28 181 l 28 886 q 64 922 28 922 l 401 922 q 436 893 436 922 l 436 181 q 471 147 436 147 l 567 147 q 593 154 586 147 q 600 178 600 161 l 600 886 q 635 921 600 921 l 972 921 q 1008 886 1008 921 l 1008 26 q 972 -10 1008 -10 l 225 -10 q 192 26 192 -10 l 192 114 q 157 146 192 146 l 65 146 q 39 157 50 146 q 28 181 28 168 m 475 1026 q 438 992 475 992 l 103 992 q 71 1026 71 992 l 71 1194 q 103 1231 71 1231 l 438 1231 q 475 1194 475 1231 l 475 1026 m 971 1026 q 933 992 971 992 l 599 992 q 567 1026 567 992 l 567 1194 q 599 1231 567 1231 l 933 1231 q 971 1194 971 1231 l 971 1026 z "},"ý":{"ha":1078,"x_min":26,"x_max":1011,"o":"m 600 893 l 604 893 l 604 492 q 569 458 604 458 l 476 458 q 440 492 440 458 l 440 893 q 425 913 438 904 q 400 922 413 922 l 60 922 q 26 886 26 922 l 31 886 l 31 333 q 67 300 31 300 l 569 300 q 604 267 604 300 l 604 179 q 569 146 604 146 l 231 146 q 196 114 196 146 l 196 25 q 231 -10 196 -10 l 978 -10 q 1011 25 1011 -10 l 1011 731 q 976 767 1011 767 l 885 767 q 849 801 849 767 l 849 888 q 840 914 849 907 q 814 924 831 924 l 635 924 q 600 893 600 924 m 743 1176 l 742 1176 l 742 1307 q 740 1318 742 1314 l 740 1346 q 703 1381 740 1381 l 368 1381 q 336 1346 336 1381 l 336 1026 q 345 999 336 1011 q 372 988 354 988 l 547 988 q 585 1022 585 988 l 585 1110 q 607 1143 585 1138 l 703 1143 q 721 1146 710 1143 q 743 1176 743 1151 z "},"þ":{"ha":1083,"x_min":31,"x_max":1017,"o":"m 32 29 q 41 1 32 13 q 69 -10 50 -10 l 407 -10 q 442 25 442 -10 l 442 154 q 446 158 446 158 q 443 161 446 160 q 482 185 451 185 l 981 185 q 1017 218 1017 185 l 1017 772 q 982 807 1017 807 l 438 807 l 438 893 q 403 924 438 924 l 65 924 q 31 890 31 924 l 32 29 m 574 343 l 482 343 q 444 376 444 343 l 444 615 q 482 651 444 651 l 574 651 q 611 615 611 651 l 611 376 q 574 343 611 343 z "},"ÿ":{"ha":1078,"x_min":26,"x_max":1011,"o":"m 606 897 q 611 918 606 913 q 635 924 617 924 l 814 924 q 840 914 831 924 q 849 888 849 907 l 849 801 q 885 767 849 767 l 976 767 q 1011 731 1011 767 l 1011 25 q 978 -10 1011 -10 l 231 -10 q 196 25 196 -10 l 196 114 q 231 146 196 146 l 569 146 q 604 179 604 146 l 604 267 q 569 300 604 300 l 67 300 q 31 333 31 300 l 31 886 l 26 886 q 60 922 26 922 l 400 922 q 425 913 413 922 q 440 893 438 904 l 440 492 q 476 458 440 458 l 569 458 q 604 492 604 458 l 604 872 l 606 897 m 475 1026 q 438 992 475 992 l 103 992 q 71 1026 71 992 l 71 1194 q 103 1231 71 1231 l 438 1231 q 475 1194 475 1231 l 475 1026 m 971 1026 q 933 992 971 992 l 599 992 q 567 1026 567 992 l 567 1194 q 599 1231 567 1231 l 933 1231 q 971 1194 971 1231 l 971 1026 z "},"":{"ha":635,"x_min":0,"x_max":0,"o":""},"":{"ha":635,"x_min":0,"x_max":0,"o":""}}}
